<svg xmlns="http://www.w3.org/2000/svg" xmlns:xlink="http://www.w3.org/1999/xlink" viewBox="0 0 692 622"><defs><style>.cls-1{fill:#fff;}.cls-2{fill:#e69e8c;}.cls-3{fill:#c8442f;}.cls-4{fill:#d39752;}.cls-5{fill:#774508;}.cls-6{fill:#07bc0b;}.cls-7{fill:#f9ff01;}.cls-8{fill:red;}.cls-9{fill:#a67c52;}</style><symbol id="ÆG" data-name="ÆG" viewBox="0 0 692 622"><ellipse cx="346" cy="311" rx="346" ry="311"/><ellipse class="cls-1" cx="346.92" cy="309.46" rx="339" ry="304"/><path class="cls-2" d="M474.92,431.46"/><path class="cls-3" d="M375.92,464.46"/><path class="cls-2" d="M350.92,524.46"/><path class="cls-2" d="M361.92,518.46"/><path class="cls-3" d="M540.92,422.46"/><path class="cls-2" d="M543.92,421.46"/><path class="cls-3" d="M439.92,483.46"/><path class="cls-2" d="M351.92,544.46"/></symbol></defs><g id="Lag_2" data-name="Lag 2"><g id="Lag_1-2" data-name="Lag 1"><use width="692" height="622" xlink:href="#ÆG"/><ellipse class="cls-4" cx="351.38" cy="339.89" rx="175.31" ry="112.24"/><path class="cls-5" d="M525.76,323.2c17.62,55.65-70.57,108.52-170.21,108.52S175.14,381.47,175.14,319.49s80.77-112.24,180.41-112.24,159,23.6,164.64,85.34"/><path class="cls-6" d="M183.4,250.84c-3-.06-5.83-.46-8.79,0a11.64,11.64,0,0,0-8.37,6.41c-2.8,5.62-1.68,14.19,4.56,16.8a18.25,18.25,0,0,0,8,1.05c2.3-.12,4.88.12,7.11-.49,4.62-1.27,6.3-6.44,4-10.46a10.64,10.64,0,0,0-3.87-3.87,16.64,16.64,0,0,0-2.68-1.15c-.39-.14-1.34-.68-.64-.08-2.48-2.08-6.05-2.43-8.48,0-2.14,2.14-2.5,6.39,0,8.48a14.34,14.34,0,0,0,4.64,2.71c.16.05,1.26.32.81.24l.58.32c-.75-.81-.92-.83-.49-.06l-.82-3,.15-.86,1.54-2.65c1.82-1.66,3.82-1.24,1.63-1.23-.46,0-.92,0-1.38,0-.9,0-1.81.11-2.72.14-.6,0-1.2,0-1.81,0a8.85,8.85,0,0,1-.89-.05c-.45,0-.39,0,.18,0-.65.23-.45-.44.18.26a2.83,2.83,0,0,1,1,1.59c.06.78.08.92,0,.4a11.44,11.44,0,0,0,.08-3.45c.14.41-.22.56,0,.6s-.69-.19-.13.07c.4-.09.38-.09,0,0l.68,0c.71,0,1.41,0,2.12.05,1.25.06,2.49.18,3.74.21,7.73.15,7.73-11.85,0-12Z"/><path class="cls-7" d="M406.39,252.56,195.55,283.31c-5.11.77-23.94,5.26-23.09,10.91l8.31,110.59c.85,5.65,5.68,9.61,10.78,8.85l233.77-35.12c5.1-.77,8.55-6,7.7-11.63l-15.85-105.5C416.32,255.76,411.5,251.8,406.39,252.56Z"/><ellipse class="cls-8" cx="235.4" cy="326.45" rx="38.49" ry="77.38" transform="translate(-162.37 387.84) rotate(-62.98)"/><path class="cls-6" d="M193.94,266.24c-3.06-.09-5.93.34-8.15,2.69-1.53,1.62-1.9,3.9-3.17,5.38-1.71,2-3.44,3.82-4.16,6.43a12.05,12.05,0,0,0,1,8.72c5,8.93,17.13,4.73,23.42-.2,2.53-2,2.12-6.45,0-8.48a15.21,15.21,0,0,0-4.32-2.91c-1.12-.52-2.46-.86-3.26-1.81l1.55,2.65c-.72,2.73-.79,3.53-.22,2.42.19-.33.36-.66.53-1l-11.18-3a8.78,8.78,0,0,0,2.57,6.65,13.21,13.21,0,0,0,2.35,1.78c.21.13,2,1.36,1.24.67a6.14,6.14,0,0,0,8.48,0c2.18-2.17,2.46-6.34,0-8.48a20.39,20.39,0,0,0-2.88-2.1,4.9,4.9,0,0,0-1-.61c-.43-.29-.34-.18.25.34a2.7,2.7,0,0,1,1,1.75c.23-5.86-8.45-8.28-11.18-3-1.89,3.63-3,7.36.23,10.73,2,2.09,5.68,2.83,7.37,4.46v-8.48c1.09-.86-1,.5-1.39.72a5.77,5.77,0,0,1-2,.79,13.75,13.75,0,0,1-1.79.44c.63-.1.31-.05-.13,0-.65,0-.74,0-.28,0s.36,0-.22-.08a12.86,12.86,0,0,0,1.15.79c.26.2.2.51.3.72v-.79c-.42,1.15-.46,1.42-.14.81,0,0,1.21-1.4,1.67-1.94a15.61,15.61,0,0,0,2.64-4.13c.07-.16.57-1.43.61-1.41l-2.38,1.49,1.47.05c7.72.21,7.72-11.79,0-12Z"/><path class="cls-6" d="M187.46,268.67a18.22,18.22,0,0,0-16.41,10.9c-2.92,6.17-.3,13.53,5.27,17.17A23.4,23.4,0,0,0,186.6,300c4.1.48,7.42-.91,11.4-1.48s7.86-.52,11.74-1.24c4.5-.82,8.8-2.37,13.38-2.79,7.62-.72,7.69-12.72,0-12a98.29,98.29,0,0,0-14.05,2.65c-5,1.2-10.18.72-15.11,1.86-2.62.6-9.88,2.79-11.73-.77-.68-1.32-.17-1.28.56-2.42,1.42-2.24,2.06-3,4.67-3.1,7.7-.2,7.73-12.2,0-12Z"/><path class="cls-6" d="M182.27,295.74c.3,7.79,3.85,15.35,12.13,17.05,3.95.8,8.71.65,12.34-1.19s6.61-5.09,10.68-6c7.52-1.72,4.34-13.29-3.19-11.57-4.79,1.09-7.91,4.35-12.15,6.42-4.55,2.22-7.63.06-7.81-4.69-.3-7.7-12.3-7.74-12,0Z"/><path class="cls-6" d="M195.56,303.36h14.59c7.72,0,7.73-12,0-12H195.56c-7.72,0-7.73,12,0,12Z"/><path class="cls-6" d="M206.58,306.28c0,9.17-.38,23.33,12.35,24,8.45.41,19.46,2.34,26.57-3.67,3.84-3.25,1.1-8.49-2.65-10a72.14,72.14,0,0,0-12.43-3.7c-4.54-1-5.52-3.83-8.79-6.46l1.76,4.24c.42-4,.13-7.76-4-9.65-3.75-1.71-7.8-.13-11.67.1-5,.3-9,2.17-10.59,7.43-1.23,4.18,0,8.78,2.34,12.34,11.76,18.35,39.06,11.48,55,3.58,6.92-3.42.85-13.77-6.06-10.36-4.68,2.31-9.9,3.3-14.85,4.89s-10.29,2.31-15.33,1c-4.44-1.14-6.73-3.19-9.33-6.65,0,0-.33-2.4-.79-.77-.71.58-.57.75.42.5a13.5,13.5,0,0,0,2.46-.25,11.06,11.06,0,0,0,3.32-.56c1.28-.75,1.77,1.51-1-1L211.62,307c.39,3.34-.64,4.86,1.52,7.9a28.79,28.79,0,0,0,6.09,6c5.83,4.35,13.75,4.46,20.43,7.22l-2.64-10c-.36.3-4.61.69-5.48.76-3,.25-5.58-.43-8.49-.66-2.28-.19-3.53.75-4.39-1.64-1-2.68-.08-7.44-.08-10.26,0-7.73-12-7.74-12,0Z"/><path class="cls-6" d="M220.36,322.48c.89,7.46,4.48,18.77,13.42,19.07,4,.13,8.43,0,12.14-1.5,4.69-1.92,8.37-5.53,12.4-8.45,5.54-4,2.23-12.21-4.63-11-5.87,1.06-11.71,2.3-17.58,3.35-7.59,1.37-4.37,12.94,3.19,11.57,5.87-1.05,11.71-2.29,17.58-3.35l-4.62-11c-4.19,3-8.42,7.91-13.86,8.19a18.65,18.65,0,0,0-3.43.07l-1.19.05q2.26,1.56,1.38.09c.32-1.47-2.61-5.52-2.8-7.16-.9-7.57-12.92-7.66-12,0Z"/><path class="cls-7" d="M533.85,335.93c-8-6.44-36.05-17.44-38.94-18.13L353.43,283c-3.43-.82-16.6-2.45-17.81,2.57l-28.74,95.79c-1.2,5,12.57-2.67,16-1.85l137,40.13c3.43.82,7.15.38,8.35-4.64L536,339c.19-.78-.61-1.83-2.11-3"/><ellipse class="cls-8" cx="347.34" cy="358.91" rx="77.38" ry="38.49"/><path class="cls-6" d="M241.43,332.21c-.2,5.52.48,9.27,4.15,13.6a14.57,14.57,0,0,0,12.66,5.34c7.62-.5,16.15-8.58,19.11-15.42,1.66-3.84-.16-9.3-5.18-9a33.24,33.24,0,0,0-9.83,2.46,42,42,0,0,1-4.18,1.56,5.87,5.87,0,0,1-2.62.38q3.79,6.88,3.56,2.73c.32-7.72-11.68-7.71-12,0-.22,5.39,2.88,9.12,8.44,9.27,6,.17,10.84-4.09,16.63-4.4l-5.18-9a22.39,22.39,0,0,1-7.58,8.69,3.71,3.71,0,0,1-4.11.36c-2.54-1.52-2-4.08-1.87-6.51.28-7.72-11.72-7.71-12,0Z"/><path class="cls-6" d="M267.37,339.5c.18,7.33,4.49,13,12,13.94,3.44.42,8.37.95,11.5-.87,2.74-1.6,4.86-5.36,5.72-8.32s-.63-5.16-2.76-6.78c-2.68-2-6.87-1.15-9.24-.76-.21,0-3.21.1-4.08.66q-.69.13.09,0l2,.75c-1-.64-.38-2.11-.88.3L280.18,341l.3-.39-2.65,1.55c-.77,0-.66.05.32,0s1.82,0,2.73,0c1.82,0,3.63.05,5.45.06,7.73.05,7.73-11.95,0-12-4.1,0-10.21-1.21-13.73,1.44-4,3-3,8.46-.64,12.15,2.11,3.23,5.16,5.66,9.18,5.46a39.18,39.18,0,0,0,4.16-.68,22,22,0,0,0,3-.47c1.4-.45.74.68-.58-.33L285,341.06c-.35,1.23-2.79,3.13,0,1.43s.05-.81-1.25-.82a20.81,20.81,0,0,1-2.74,0c-1.68-.25-1.56-.38-1.6-2.13-.2-7.7-12.2-7.73-12,0Z"/><path class="cls-6" d="M290.87,345.18c-.18,4.1-.41,7.64,1.94,11.2,2.24,3.38,5.58,6.83,9.42,8.27,6.48,2.44,16.62,2.34,21.48-3.06,4.3-4.77,8.29-13.36-.1-16.54-2.68-1-5.94-1.08-8.8-1.05-2.28,0-3.49.19-5.5-.79-2.25-1.11-4.47-2-6.79-3-7.14-2.94-10.25,8.67-3.19,11.57,4.39,1.81,7.61,4.37,12.56,4.36,2,0,6.45-.6,7.57.25l-2.76-3.59c-1-2.66.56-1.19-.93-.31-.39.23-.56.84-.95,1.08-.56.36-4.24.32-5.78.25-2.38-.11-3.27-.71-4.89-2.49-2-2.14-1.4-3.27-1.28-6.14.33-7.72-11.67-7.71-12,0Z"/><path class="cls-8" d="M527.46,331.26h0"/><path class="cls-8" d="M534.47,314.86c-.61,5.31-3,10.87-7,16.4"/><path class="cls-8" d="M527.46,331.26c-10,13.92-29.71,27.6-54.39,36.18-40.36,14-78.75,9.13-85.73-10.95s20.08-47.73,60.45-61.77,78.75-9.13,85.73,10.95a20.59,20.59,0,0,1,1,9.19"/><path class="cls-6" d="M316.8,352.47c-.2,4,.07,6.95,2.55,10.25,2.23,3,4.74,6.33,7.72,8.55,6.05,4.51,15.59,7.35,22.65,3.42,6.35-3.52,10.95-13.21,11.3-20.28.38-7.84-8-9.9-14.26-10.32-4.28-.28-8.64-.11-12.92-.12-3,0-6.74-.56-9.38,1.13-7.19,4.62-1.27,14.69,3.46,18.68,7.63,6.44,26.81,4.52,23.36-8.85-1.93-7.47-13.5-4.31-11.57,3.19a3.63,3.63,0,0,1,1.62-3,1.82,1.82,0,0,1-1,.18,11.25,11.25,0,0,0-2.79-.08c-2.38-.19-1.71-1.21-3.78-3.06l-.59-1.13q-7.38,5-3.14,4.95c1.29.59,4.21,0,5.74,0,3.65,0,7.38-.19,11,.1,0,0,3.77.59,3.7.65-.84-3.35-1.45-3.93-1.84-1.77-.3.92-.61,1.84-.94,2.75-1,2.93-1.92,6.26-5.32,6.76-3.57.52-7.66-2.07-9.85-4.6s-3.88-4-3.71-7.41c.4-7.72-11.6-7.69-12,0Z"/><path class="cls-6" d="M354.08,351.66c0,4.22.2,9.12,3.33,12.34,2.75,2.83,6.84,3.81,10.66,4.12,9.41.76,21.27.57,28.95-5.83,4.9-4.08,11.47-17,1.56-19.58-4.54-1.17-8.49,2.3-12.74,3.18-6.25,1.29-12.94.62-19.27.58-7.73-.05-7.73,11.95,0,12,6.62,0,13.22.37,19.8-.58a28.29,28.29,0,0,0,8.13-2.28c.69-.31,1.37-.65,2-1l-4.85-5.16c-.3.09-1.31,2.65-1.68,3.05-3.34,3.67-10.55,3.85-15,3.78-2.31,0-5.45.49-7.66-.33-.89-.32-1-.45-1.07-.51-.5-.83-.15-2.87-.16-3.78-.06-7.72-12.06-7.73-12,0Z"/><path class="cls-6" d="M397,345.18c0,4.34,1.12,8.6,4.57,11.5s7.67,2.54,12,2.63c7.92.17,20.12,0,22.76-9.67,1.74-6.39.3-16-7.93-16.18C425,333.39,422,335,419,336.15c-4.52,1.77-9.72,2.56-14.11,4.84-2.63,1.37-4.05,5.71-2.15,8.21a17,17,0,0,0,4.23,3.89l1.43-11c1.55-.36.56,0-.49-.89-.48-.4-.95-.67-1.42-1.11-5.7-5.19-14.21,3.28-8.48,8.49,3.7,3.38,8.41,6.31,13.58,5.08,5.38-1.27,5.43-8.19,1.43-11-1.07-.84-1.05-.7.08.41l-2.15,8.21c3.81-2,8.59-2.53,12.6-4.18.86-.36,2.83-.83,3.5-1.42,1-.85,2.35.85-.63-1.63-2-1.63-1.86-1.19-1.55,1a3.73,3.73,0,0,1-.07,1.33c.4-1,.44-.59-.38-.13a11.73,11.73,0,0,1-5.67,1.16c-2.48,0-5-.2-7.45-.18-2.26,0-2.22.34-2.24-2.12-.07-7.72-12.07-7.74-12,0Z"/><path class="cls-6" d="M394.82,350.83c.85,5.92,6.89,10,11.86,12.49,6.42,3.19,14.7,3.8,21.08.15a26.47,26.47,0,0,0,12.37-15.76c1.52-5.2,3.08-12.89-.3-17.72-4.4-6.28-14.8-.29-10.36,6.06,1.28,1.83-.35,6.6-.91,8.47a13.7,13.7,0,0,1-5.64,7.81,10.47,10.47,0,0,1-10.19.63c-2.19-.95-6-2.77-6.34-5.32-1.09-7.62-12.65-4.38-11.57,3.19Z"/><path class="cls-6" d="M389.15,358.12c1.8,7.64,8.2,8.29,14.82,9.06,3.35.39,7.25.89,10.55,0,1.78-.47,2.77-1.46,4.31-2.32s3.41-1.45,5.07-2.36c6.75-3.75.71-14.12-6.06-10.37-1.71,1-3.58,1.52-5.3,2.48-1.93,1.09-2.37.95-4.74.8-2-.12-4.36-.83-6.32-.68q-3.23-.78-.43.82a.73.73,0,0,1-.33-.64c-1.77-7.51-13.34-4.33-11.57,3.19Z"/><path class="cls-6" d="M394.93,364.15c-2-.18,1.27,1,2,1.41a35.4,35.4,0,0,0,4.5,2.21c3.19,1.26,6.45,1.2,9.82,1.25,6.85.1,13.45.06,19-4.53,11.22-9.34,14.56-23,14.49-37.14,0-7.72-12-7.74-12,0,.05,10-1.58,21.91-10.39,28.18C418.82,358,412,357.42,407.94,357c-4.77-.49-8.09-4.42-13-4.85-7.69-.69-7.64,11.31,0,12Z"/><path class="cls-6" d="M421.68,353.61h5.67a6,6,0,0,0,0-12h-5.67a6,6,0,1,0,0,12Z"/><path class="cls-6" d="M436.08,347c5.39,5.08,10.42,5.85,17.61,5.8,5.15,0,9.55-.63,12.21-5.54a43.73,43.73,0,0,0,3-7.76,31,31,0,0,0,1.78-6c.62-5.36-1.57-10.55-7.17-11.91s-11.31,2.34-16,5.19-8.36,7.61-5.16,13.08c5,8.64,21.06,7.17,20.2-4.37-.57-7.65-12.58-7.71-12,0,0,.47,3.24-1.79,1.7-2.16q-1.61,6.18,1.31,3.82c.77-.42,1.52-.85,2.26-1.3s1.79-1.08,2.7-1.6q2.85-.51.3-2.66c.28,0-1.39,3.84-1.4,3.86-.63,2.23-.34,2.14-1,3.7-.3.69-.59,1.39-.87,2.09q-1.25,1.95,1.27-.43c0,.05-6.26.1-6.78.06a7.11,7.11,0,0,1-5.47-2.33c-5.62-5.29-14.12,3.18-8.48,8.49Z"/><path class="cls-6" d="M506.29,294.34c1-.33,3.38,1,4.5,1.11a16,16,0,0,0,6.63-.61,23,23,0,0,0,9.25-4.75c6.11-5.48,8.43-13.33,7.5-21.3s-10.95-36.18-22.89-24.41c-3.41,3.36-4,8.51-5.3,12.88-1.11,3.64-2.39,7.15-3.82,10.68-1.29,3.19-2.82,7.25-1.05,10.53,3.2,5.94,12.67,8.83,17.44,3.38,2.18-2.48,2.75-6,3.7-9a27.9,27.9,0,0,0,1.48-6.38c.14-2-.22-4,.36-6,2.19-7.42-9.39-10.59-11.57-3.19-1,3.29-.33,6.61-1,9.89-.36,1.68-1.11,3.29-1.59,4.94q-.28,1-.54,2,3.73-1.29,1.18-2.91l1.76,4.24c.44-3.37,2.62-6.71,3.66-9.94.69-2.14,1.39-4.3,2-6.47.4-1.46,1.79-4.3,1.68-5.79.93-1.26.3-1.28-1.91-.08-2.42-.13-2.94.53-1.58,2,.26,1.46,1.83,3.14,2.64,4.35,3.48,5.16,5.44,13.74,1.87,19.29-1.53,2.37-4.88,5-8,4.9-3.6-.13-5.64-2.2-9.57-.92-7.31,2.39-4.18,14,3.19,11.58Z"/><path class="cls-6" d="M444.37,347.94c9.44.73,18.62,5.61,25.49-3.57,6.47-8.65,8-19.13,3.8-29.15-1.27-3-4-5.1-7.38-4.19-2.82.74-5.45,4.39-4.19,7.38,2.6,6.16,3.08,13.23-1.68,18.63-1.66,1.88-2.15.89-5.05.32a99.18,99.18,0,0,0-11-1.42c-7.7-.61-7.66,11.4,0,12Z"/><path class="cls-6" d="M471.12,328.48c1.74,0,3.86,1.77,5.67,2.16a25.67,25.67,0,0,0,7.27.3,23,23,0,0,0,11.84-4.17c7.2-5.15,9.71-14.89,6.67-23.07-1.25-3.37-1.81-7-5-9.17s-7.09-1.79-10.29.3c-2.69,1.77-4.6,4.43-6.79,6.72-3.17,3.32-7,6-9.54,9.86a5.88,5.88,0,0,0,0,6.06c3.28,4.55,8.66,8.38,14.34,5.28,2.3-1.26,4.11-3.43,5.88-5.33,1.95-2.09,2.65-4.91,4.42-6.9,5.11-5.76-3.35-14.28-8.48-8.49-1.64,1.84-2.17,3.77-3.45,5.74a18.76,18.76,0,0,1-2.24,2.39c-.55.58-1.08,1.17-1.61,1.76-.94.95-.44.77,1.51-.51v6.06c2.27-3.41,6.43-6,9.2-9.06.52-.59,3.24-2.89,3.22-3.52q-4.57-3.25-3.63-.6c.15.6.32,1.19.51,1.78a25.8,25.8,0,0,1,1.18,2.84c1,4.66-1.87,8.47-6.22,9.7-5.5,1.56-9.22-2-14.49-2.13-7.73-.15-7.73,11.85,0,12Z"/><path class="cls-6" d="M491.06,301.2c3.31,5.51,10.25,10.72,16.69,6.57a16.79,16.79,0,0,0,7.5-14.69c-.23-6.71-4.81-12.12-12.05-10.5-5.12,1.15-9.26,8.1-8.8,13.18a7.59,7.59,0,0,0,2.23,4.9,12.92,12.92,0,0,0,1.9,1.37q3.23,1.91-1.12-4.55c-2.15,1.66-1.44,6.45-.51,8.36,2.78,5.7,11.13,6.37,16.07,3.25,4.64-2.93,5.77-9.89,5.68-14.93a12.6,12.6,0,0,0-3.48-8.79c-2.14-2.25-4.31-4.76-6.58-6.84-5.69-5.2-14.2,3.26-8.49,8.49,1.93,1.75,3.35,3.91,5.31,5.66a15.7,15.7,0,0,1,1.27,1.18q-.14-1.29,0,.3a9.73,9.73,0,0,1-.11,2.47c0,.13-.73,3-.72,3s1.12-1,.75-.71c-2.46-.29-2.07,1.26,1.2,4.64l.41-.7a7.72,7.72,0,0,0,1.1-4.15c0-2.51-1.48-5.65-4-6.66l-.74-.36q.6,6.87,2.08,3.47l.43-.84q2.27-3.42-3.94-2.15a10.57,10.57,0,0,0,.13,3c-.06.14-2.09,2.45-2,2.49,1.69,0,2.07-.38,1.12-1.09a6.43,6.43,0,0,1-.93-1.38c-4-6.61-14.35-.58-10.36,6.06Z"/><ellipse class="cls-4" cx="351.38" cy="242.96" rx="168.82" ry="105.28"/><path class="cls-6" d="M510.81,281.33c3.31,5.52,10.25,10.73,16.69,6.58a16.82,16.82,0,0,0,7.5-14.7c-.23-6.71-4.81-12.12-12.06-10.5-5.11,1.15-9.25,8.1-8.79,13.18a7.59,7.59,0,0,0,2.23,4.9,12.22,12.22,0,0,0,1.9,1.37q3.22,1.9-1.13-4.54c-2.14,1.65-1.43,6.45-.5,8.35,2.78,5.71,11.13,6.37,16.06,3.26,4.65-2.94,5.78-9.9,5.69-14.93a12.62,12.62,0,0,0-3.48-8.8c-2.14-2.24-4.31-4.76-6.58-6.84-5.7-5.2-14.21,3.27-8.49,8.49,1.93,1.76,3.35,3.91,5.31,5.66.44.37.86.77,1.27,1.18-.09-.86-.1-.76,0,.31a9.67,9.67,0,0,1-.11,2.46c0,.13-.74,3-.72,3s1.12-1,.75-.7q-3.71-.45,1.2,4.63l.4-.7a7.7,7.7,0,0,0,1.11-4.15c0-2.51-1.48-5.65-4-6.66l-.73-.36q.6,6.87,2.08,3.47l.43-.83q2.26-3.44-3.94-2.16a10.57,10.57,0,0,0,.13,3c-.06.14-2.09,2.46-2,2.49,1.69,0,2.06-.37,1.12-1.09a6.62,6.62,0,0,1-.93-1.37c-4-6.62-14.35-.59-10.36,6.05Z"/><ellipse class="cls-9" cx="249.34" cy="203.54" rx="5.57" ry="1.86"/><ellipse class="cls-9" cx="281.56" cy="250.46" rx="5.57" ry="1.86"/><ellipse class="cls-9" cx="300.36" cy="259.19" rx="5.57" ry="1.86"/><ellipse class="cls-9" cx="279.95" cy="224.87" rx="5.57" ry="1.86"/><ellipse class="cls-9" cx="273.46" cy="198.9" rx="5.57" ry="1.86"/><ellipse class="cls-9" cx="290.16" cy="179.42" rx="5.57" ry="1.86"/><ellipse class="cls-9" cx="312.42" cy="166.44" rx="5.57" ry="1.86"/><ellipse class="cls-9" cx="251.2" cy="235.08" rx="5.57" ry="1.86"/><ellipse class="cls-9" cx="309.64" cy="234.15" rx="5.57" ry="1.86"/><ellipse class="cls-9" cx="344.88" cy="256.41" rx="5.57" ry="1.86"/><ellipse class="cls-9" cx="325.4" cy="274.03" rx="5.57" ry="1.86"/><ellipse class="cls-9" cx="390.33" cy="242.5" rx="5.57" ry="1.86"/><ellipse class="cls-9" cx="351.38" cy="231.37" rx="5.57" ry="1.86"/><ellipse class="cls-9" cx="360.65" cy="215.6" rx="5.57" ry="1.86"/><ellipse class="cls-9" cx="319.84" cy="213.74" rx="5.57" ry="1.86"/><ellipse class="cls-9" cx="303.14" cy="195.19" rx="5.57" ry="1.86"/><ellipse class="cls-9" cx="328.19" cy="184.06" rx="5.57" ry="1.86"/><ellipse class="cls-9" cx="356.01" cy="172" rx="5.57" ry="1.86"/><ellipse class="cls-9" cx="357.87" cy="196.12" rx="5.57" ry="1.86"/><ellipse class="cls-9" cx="388.48" cy="213.74" rx="5.57" ry="1.86"/><ellipse class="cls-9" cx="396.83" cy="181.28" rx="5.57" ry="1.86"/><ellipse class="cls-9" cx="409.81" cy="214.67" rx="5.57" ry="1.86"/><ellipse class="cls-9" cx="443.2" cy="201.68" rx="5.57" ry="1.86"/><ellipse class="cls-9" cx="433.93" cy="244.35" rx="5.57" ry="1.86"/><ellipse class="cls-9" cx="445.99" cy="224.87" rx="5.57" ry="1.86"/><ellipse class="cls-9" cx="396.83" cy="265.69" rx="5.57" ry="1.86"/><ellipse class="cls-9" cx="428.36" cy="263.83" rx="5.57" ry="1.86"/><ellipse class="cls-9" cx="368.07" cy="273.11" rx="5.57" ry="1.86"/></g></g></svg>