<svg xmlns="http://www.w3.org/2000/svg" xmlns:xlink="http://www.w3.org/1999/xlink" viewBox="0 0 692 622"><defs><style>.cls-1{fill:#fff;}.cls-2{fill:#e69e8c;}.cls-3{fill:#c8442f;}.cls-4{fill:#bb8256;}.cls-5{fill:#c24c4c;}.cls-6{fill:#efc64c;}</style><symbol id="ÆG" data-name="ÆG" viewBox="0 0 692 622"><ellipse cx="346" cy="311" rx="346" ry="311"/><ellipse class="cls-1" cx="346.92" cy="309.46" rx="339" ry="304"/><path class="cls-2" d="M474.92,431.46"/><path class="cls-3" d="M375.92,464.46"/><path class="cls-2" d="M350.92,524.46"/><path class="cls-2" d="M361.92,518.46"/><path class="cls-3" d="M540.92,422.46"/><path class="cls-2" d="M543.92,421.46"/><path class="cls-3" d="M439.92,483.46"/><path class="cls-2" d="M351.92,544.46"/></symbol></defs><g id="Lag_2" data-name="Lag 2"><g id="Lag_1-2" data-name="Lag 1"><use width="692" height="622" xlink:href="#ÆG"/><path class="cls-4" d="M184.92,307.75c-2.41-4.82-19.72-39.42-3.11-63.26,2.35-3.36,10.48-13.86,32.6-19.63,48.33-12.63,76,20.13,128.81,29.08,83,14.06,126.49-47.83,165.3-23.26,26.71,16.91,35.69,65,17.84,95.25C478.81,406.52,224.8,387.5,184.92,307.75Z"/><path class="cls-5" d="M146.58,293.65c-.3-.31-.8-.82-1.42-1.5l-.37-.4c-10.55-11.86-9.78-28-9.78-28.05h0s0-10.6,17.06-21.21C170.91,230.76,279,264,346.65,271.07c114.6,12,197.49-42.15,222.67-8.43,6.17,8.27,6.09,18.19,5.31,24.61A34.48,34.48,0,0,1,563.8,305.1C505.69,355.84,195.31,343.87,146.58,293.65Z"/><path class="cls-4" d="M183.89,342.34c-2.41-3.49-19.72-28.53-3.11-45.77,2.35-2.43,10.48-10,32.6-14.21,48.33-9.13,76,14.57,128.82,21.05,83,10.17,126.49-34.61,165.29-16.84,26.71,12.24,35.69,47,17.85,68.92C477.78,413.8,223.77,400,183.89,342.34Z"/><path class="cls-6" d="M223.44,276.79c.09-1.68,2.13-2.6,3.35-3.52,1.89-1.43,3.66-3.1,5.69-4.35a22.36,22.36,0,0,1,13.64-3.48c5.68.36,7.15,5.29,10.61,8.93a20.27,20.27,0,0,0,13.1,6.33c5.26.38,10.57-1.13,15.49-2.83,4.24-1.45,11.51-5.67,16-3.1,3.18,1.82,5,7.77,7.21,10.65,3.39,4.48,8.4,8.07,14.21,8.23,4.9.15,9.5-2,14.05-3.59a103,103,0,0,1,15.95-4.14c5.58-.94,9.15,3,13.18,6.21a20.5,20.5,0,0,0,25.2-.12c3.92-3.05,6.9-6.94,11.63-8.84,6-2.41,10.07.45,15.28,3.28A50.07,50.07,0,0,0,432.68,292a26.89,26.89,0,0,0,16.71-1.9c5-2.43,9-6.57,13.3-10,4.64-3.69,9.64-6.28,15.52-3.82,2.87,1.19,5.26,3.3,8.06,4.63a31.64,31.64,0,0,0,8.77,2.36c7.55,1.22,10.8-10.34,3.19-11.58-2.82-.45-5.42-.81-7.93-2.25a70.69,70.69,0,0,0-6.78-3.84c-5.4-2.42-11.27-3.21-17-1.34-5.16,1.69-9.39,4.87-13.49,8.31s-8.34,7.83-14.17,8c-11.82.39-20-10.87-31.76-10.62-5,.11-10.24,2.21-14.39,4.89-3.92,2.53-7.17,8-11.71,9.29-4.93,1.37-7.75-1.67-11.34-4.42-4.88-3.73-9.81-6.43-16.14-6-5.3.36-11.35,2-16.42,3.55-4.74,1.45-12.61,6.41-17.14,3-4-3.07-5.29-8.74-8.51-12.49-3.35-3.92-8.69-5.73-13.77-5.63-9.15.19-24.84,12-32.49,3.73-4.15-4.51-6.71-9.65-13.07-11.57a30.4,30.4,0,0,0-17.84.56c-5.67,2.13-10,5.28-14.79,8.93s-7.73,6.75-8.08,13c-.44,7.71,11.56,7.69,12,0Z"/></g></g></svg>