<svg xmlns="http://www.w3.org/2000/svg" width="51.92mm" height="51.92mm" viewBox="0 0 147.18 147.18"><defs><style>.cls-1,.cls-3{fill:#fff;}.cls-1{stroke:#000;stroke-miterlimit:10;stroke-width:0.3px;}.cls-2{fill:#c95956;}.cls-4{fill:#010101;}</style></defs><g id="Layer_2" data-name="Layer 2"><g id="Layer_1-2" data-name="Layer 1"><circle class="cls-1" cx="73.59" cy="73.59" r="73.44"/><path d="M49.44,38.92a2.87,2.87,0,0,1-1-1.11,17.2,17.2,0,0,1-.55-3.66q-.27-3.07-.27-4.59V28.39c0-.34,0-.72,0-1.13A19.12,19.12,0,0,1,47.76,25,4.9,4.9,0,0,1,48,24a2.92,2.92,0,0,1,.41-.78,2.36,2.36,0,0,1,1.46-1A4.94,4.94,0,0,1,51,22.12a1.72,1.72,0,0,1,.85.24c.29.17.44.36.44.58s-.12.24-.36.24a1.74,1.74,0,0,1-.51-.15,1.5,1.5,0,0,0-.6-.16,2.39,2.39,0,0,0-1.11.26,2,2,0,0,0-.79.67,3.64,3.64,0,0,0-.42,1A6,6,0,0,0,48.27,26a10.17,10.17,0,0,0-.07,1.33l0,1.24c0,.35,0,.74,0,1.15,0,1,.11,2.52.31,4.5a13.24,13.24,0,0,0,.6,3.43,1.65,1.65,0,0,0,.79.65,2.92,2.92,0,0,0,1.1.22,1.94,1.94,0,0,0,1.55-.64.54.54,0,0,1,.42-.27c.13,0,.2.1.2.31a1,1,0,0,1-.25.7,1.44,1.44,0,0,1-.66.45,3.77,3.77,0,0,1-1.55.31A2.3,2.3,0,0,1,49.44,38.92Z"/><path d="M55.2,38.83a3.49,3.49,0,0,0,0-.73c0-1.36,0-3.38.07-6.05s.07-4.58.07-5.76l0-.8.07-.67a.13.13,0,0,1,.15-.15,1.1,1.1,0,0,1,.31.06l.07,0c0,.32,0,.62,0,.88v3.28c0,.71,0,1.52,0,2.42a4.06,4.06,0,0,0,0,.48l0,.47c0,.3,0,.6,0,.91s0,.65,0,.93l0,.95-.07.18,0,0s0,.07,0,.09v.08a.59.59,0,0,0,.07.31l-.07,2.13V38a3.08,3.08,0,0,0,0,.45.1.1,0,0,0,.11.11l1.16,0h1a.34.34,0,0,1,.23.13.38.38,0,0,1,.11.25c0,.18-.12.27-.36.29s-.86,0-1.84,0l0,0-.42,0a1.68,1.68,0,0,1-.4.05C55.37,39.34,55.24,39.17,55.2,38.83Z"/><path d="M64.64,39.17a.73.73,0,0,1-.13-.41c-.14-1.08-.22-1.75-.25-2l-.11-.88A4.63,4.63,0,0,0,63,35.75l-.79,0q-.54-.06-.78-.06c-.09,0-.14,0-.15.11s0,.06,0,.06l0,.45q0,.39-.24,1.59a4.44,4.44,0,0,1-.27.93c-.12.25-.23.38-.33.38a.48.48,0,0,1-.29-.12.36.36,0,0,1-.16-.26l0-.06,0-.07c.26-1,.49-2.09.66-3.13l.27-1.37.27-1.68L61.45,31c.07-.4.21-1.05.4-1.93s.33-1.69.37-2.06a6.48,6.48,0,0,0,.09-.82c.06-.56.11-1,.16-1.24a2.17,2.17,0,0,1,.13-.67h.16a.34.34,0,0,0,.15,0,.54.54,0,0,0,.4-.13.42.42,0,0,1,.28.1.29.29,0,0,1,.12.23A22.68,22.68,0,0,0,63.86,27c.06.47.11.86.14,1.17.16,1.91.57,5.48,1.24,10.73v.07a.38.38,0,0,1-.18.33A.74.74,0,0,1,64.64,39.17ZM64,35.26q-.23-3.19-.84-9.42L62,31.76A23.25,23.25,0,0,0,61.49,35c0,.08.28.14.84.2a14.37,14.37,0,0,0,1.49.09Z"/><path d="M69.19,39.15a2.47,2.47,0,0,1-.67-.55A5.44,5.44,0,0,1,68,36.37c-.12-1.23-.19-2.63-.22-4.21,0-.36,0-.62,0-.8q0-5.57-.18-6.58l.13-.31c.34,0,.51.45.51,1.22l.07,5.87c0,.41,0,1.2.11,2.35s.13,1.81.13,2.35c0,1.68.55,2.52,1.66,2.52.68,0,1.12-1.55,1.31-4.65l0-.44c.1-4.07.16-7.07.16-9l0-.2a1.23,1.23,0,0,1,0-.2c0-.16.13-.24.38-.24s.29,0,.33.13a4.38,4.38,0,0,1,0,.77,11.82,11.82,0,0,1-.14,2.26l0,.14c0,.19,0,.48-.06.88l0,.89v.22a.69.69,0,0,1,0,.22c0,.36,0,.7,0,1,0,.11,0,.27,0,.49q0,2.1-.09,3.66A10.92,10.92,0,0,1,71.53,38c-.33.95-.85,1.42-1.57,1.42A1.61,1.61,0,0,1,69.19,39.15Z"/><path d="M75.52,39.13a.5.5,0,0,1-.25-.35l.11-.18a3.35,3.35,0,0,1,.4.07,1.28,1.28,0,0,0,.4.09,1.19,1.19,0,0,0,.87-.39,2.48,2.48,0,0,0,.57-1,8.17,8.17,0,0,0,.31-2.17A7,7,0,0,0,77,31.91c-.38-.68-.68-1.22-.88-1.61a8.08,8.08,0,0,1-.56-1.38,5.83,5.83,0,0,1-.29-1.75,5.72,5.72,0,0,1,.4-1.88,2.09,2.09,0,0,1,.57-.83,1.12,1.12,0,0,1,.78-.32.92.92,0,0,1,.57.2.55.55,0,0,1,.28.42c0,.12-.1.17-.29.17a.52.52,0,0,1-.22-.06.5.5,0,0,0-.25-.07.83.83,0,0,0-.6.27,1.56,1.56,0,0,0-.39.68,4.87,4.87,0,0,0-.27,1.51,3.69,3.69,0,0,0,.11.86c0,.09,0,.17,0,.23a.45.45,0,0,1,0,.13l.13.44.11.4.18.4a1.83,1.83,0,0,0,.14.28l.15.23.26.46c.06.09.19.3.38.64a10.3,10.3,0,0,1,.53,1.05,4.76,4.76,0,0,1,.33.87,8.59,8.59,0,0,1,.2,1,9.22,9.22,0,0,1,.07,1.22,6.74,6.74,0,0,1-.29,2A2.81,2.81,0,0,1,77.07,39a1.78,1.78,0,0,1-1,.27l-.11,0A1.3,1.3,0,0,1,75.52,39.13Zm2.23-14.26s0,0,0,0v0Z"/><path d="M81.17,38.87v-.29a1.84,1.84,0,0,0,0-.26l-.09-.09a2.5,2.5,0,0,0,.18-.91c0-.34,0-.83-.07-1.46l0-1.47c0-.73,0-1.84.06-3.32.06-1.31.09-2.43.09-3.34l0-1.33c0-.4,0-.85,0-1.33a.62.62,0,0,1,.16-.48.72.72,0,0,1,.49-.14.48.48,0,0,1,.35.13l.64.09a4.61,4.61,0,0,1,1,.2q.42.14.42.33c0,.15-.14.3-.42.44a6.75,6.75,0,0,0-1.8-.42l-.11.14c0,.13,0,.45,0,.95s0,1.2,0,1.7,0,1.1,0,1.73c0,.42.1.62.31.62l.35,0,.38,0c.57,0,.86.13.86.4a.76.76,0,0,1-.11.41.36.36,0,0,1-.33.16.73.73,0,0,1-.51-.17L82.12,31H82l-.11.11v.06c0,.25,0,.84,0,1.75,0,.58,0,1.1,0,1.58l0,1.57c0,.57,0,1.17.06,1.77a.92.92,0,0,0,.23.68,1.17,1.17,0,0,0,.73.16l.4,0,.44,0c.43,0,.64.1.64.29s-.32.4-1,.4H81.61C81.34,39.34,81.2,39.18,81.17,38.87Z"/><path d="M92.26,39a1.34,1.34,0,0,1-.15-.4.8.8,0,0,0-.09-.31l0-.06a13.53,13.53,0,0,0-.76-2.55l-.4-1.15a11.31,11.31,0,0,1-.42-1.13l-.18-.53c-1.32-4.11-2.16-6.33-2.5-6.67a5.49,5.49,0,0,0-.18,1.55c0,.34,0,.63,0,.88l0,.87,0,.53a4.33,4.33,0,0,0,0,.53,6.53,6.53,0,0,0,0,.84l0,.71h-.06a25.59,25.59,0,0,0,.15,4.08v2a1.06,1.06,0,0,1,.09.47.45.45,0,0,1-.12.31.38.38,0,0,1-.3.13c-.31,0-.47-.4-.47-1.19l.05-.71a5.54,5.54,0,0,0,0-.73c0-.71,0-1.78-.06-3.19S87,30.78,87,30.07c0-.42,0-1.08.07-2s.06-1.52.06-2v-.29a1.85,1.85,0,0,1,.4-1.41l.07.06.22,0a.48.48,0,0,1,.2.13.28.28,0,0,1,.09.2l0,.13a.52.52,0,0,0,0,.11,26.73,26.73,0,0,0,1.6,4.41c.84,2,1.36,3.32,1.57,4s.27,1,.36,1.37a11.07,11.07,0,0,0,1,2.91l0-.07a120,120,0,0,0,.51-12.08l0-.26a1.12,1.12,0,0,1,0-.29c0-.31.11-.46.31-.46a.42.42,0,0,1,.35.19.82.82,0,0,1,.14.45v1.48l-.11.18c0,1.4-.08,3.71-.24,6.91A31.4,31.4,0,0,1,93.13,39l-.38.09v0l0,0-.22.07A.26.26,0,0,1,92.26,39Z"/><path d="M96.83,39.13a.46.46,0,0,1-.24-.35l.11-.18a3.73,3.73,0,0,1,.4.07,1.07,1.07,0,0,0,1.26-.3,2.61,2.61,0,0,0,.58-1,8.6,8.6,0,0,0,.31-2.17,7,7,0,0,0-.94-3.28c-.38-.68-.67-1.22-.88-1.61a9,9,0,0,1-.56-1.38,5.8,5.8,0,0,1-.28-1.75,5.48,5.48,0,0,1,.4-1.88,2.07,2.07,0,0,1,.56-.83,1.15,1.15,0,0,1,.79-.32.9.9,0,0,1,.56.2.53.53,0,0,1,.28.42c0,.12-.1.17-.29.17a.56.56,0,0,1-.22-.06.49.49,0,0,0-.24-.07.8.8,0,0,0-.6.27,1.58,1.58,0,0,0-.4.68,4.87,4.87,0,0,0-.27,1.51,3.69,3.69,0,0,0,.11.86c0,.09,0,.17,0,.23a1.05,1.05,0,0,1,0,.13l.13.44.11.4.18.4a1.84,1.84,0,0,0,.15.28c0,.08.09.16.14.23l.26.46c.06.09.19.3.38.64a10.3,10.3,0,0,1,.53,1.05,5.74,5.74,0,0,1,.34.87c.07.28.14.61.2,1a11.45,11.45,0,0,1,.06,1.22,6.43,6.43,0,0,1-.29,2A2.76,2.76,0,0,1,98.38,39a1.75,1.75,0,0,1-1,.27l-.11,0A1.35,1.35,0,0,1,96.83,39.13Zm2.24-14.26s0,0,0,0v0Z"/><path class="cls-2" d="M16.24,66.09a1.77,1.77,0,0,1-.45-.14.92.92,0,0,1-.4-.38q0-.27.24-.27a1.61,1.61,0,0,1,.62.16,1.42,1.42,0,0,0,.6.18,1.32,1.32,0,0,0,.9-.4,2.76,2.76,0,0,0,.63-1A7.06,7.06,0,0,0,18.82,62a8,8,0,0,0-.31-2.2,11.11,11.11,0,0,0-.82-2.08c-.07-.16-.2-.41-.38-.73-.36-.74-.65-1.31-.84-1.73A10.34,10.34,0,0,1,16,53.85a7.45,7.45,0,0,1-.31-2.15,4.18,4.18,0,0,1,.24-1.41,2.79,2.79,0,0,1,.74-1.16,1.78,1.78,0,0,1,1.24-.51,1.36,1.36,0,0,1,.64.21c.25.14.38.28.38.41s-.05.18-.13.18a.94.94,0,0,1-.36-.11A.72.72,0,0,0,18,49.2a1.22,1.22,0,0,0-.89.37,2.21,2.21,0,0,0-.57.93,3.31,3.31,0,0,0-.15,1,7.55,7.55,0,0,0,.22,1.79,9.08,9.08,0,0,0,.6,1.71L18,56.64l.22.46c.31.64.55,1.16.72,1.58a9.1,9.1,0,0,1,.44,1.39,8.94,8.94,0,0,1,.24,2A5.72,5.72,0,0,1,19,64.68a2.8,2.8,0,0,1-.88,1,2,2,0,0,1-1.22.4A4.6,4.6,0,0,1,16.24,66.09Z"/><path class="cls-2" d="M26.54,65.52a.34.34,0,0,1-.12-.26v-2.9c0-.18-.38-.34-1.13-.49a9.78,9.78,0,0,0-1.86-.22s-.08.11-.14.33-.12.38-.15.49c-.19.77-.38,1.58-.57,2.46l-.11.48a.22.22,0,0,1-.23.18.56.56,0,0,1-.32-.11.33.33,0,0,1-.14-.27l0,0v0L22,64c.18-.69.34-1.37.47-2s.26-1.24.33-1.46c.12-.49.36-1.71.71-3.66l.13-.73c.39-2.27.65-3.7.8-4.3.08-.35.21-.87.4-1.57a5.55,5.55,0,0,1,.31-.89c.13-.25.24-.37.33-.37a.56.56,0,0,1,.51.22,12.45,12.45,0,0,1,.35,2.19c.15,1.33.29,2.68.41,4l.28,3.67c0,.64.05,1.6.14,2.88s.13,2.27.13,2.91V65a1.25,1.25,0,0,1-.07.45q-.09.18-.42.18A.41.41,0,0,1,26.54,65.52Zm-.14-4.38c0-.92,0-2.17-.16-3.76s-.21-3-.33-4.2c0-.51-.09-1.08-.18-1.7l-.08-.87a1.09,1.09,0,0,1,0-.24l0-.27a9,9,0,0,0-.35,1.36c-.11.57-.22,1.25-.34,2-.35,2.2-.66,3.86-.91,5l-.2.75a6.5,6.5,0,0,0-.33,1.68V61a7.62,7.62,0,0,0,2.24.31h.13l.16,0C26.25,61.36,26.4,61.29,26.4,61.14Z"/><path class="cls-2" d="M34.57,65.72a.88.88,0,0,1-.17-.35L34.33,65c0-.18-.07-.29-.07-.33q-2.47-8.9-2.72-10c-.13-.54-.44-2-.91-4.44,0,.09,0,.4,0,.91v8l0,3.17.05,3.15-.14.18h-.51L30,65.46a5.8,5.8,0,0,0,0-.89l0-3.85,0-3.86v-5c0-.62,0-1.31,0-2.08a.9.9,0,0,0,0-.24v-.22a.42.42,0,0,1,.15-.37.75.75,0,0,1,.45-.1.55.55,0,0,1,.3.13.61.61,0,0,1,.21.29l.46,2.17c.21,1,.39,1.82.54,2.35q.47,1.84,1.59,6c.43,1.83.81,3.23,1.15,4.21A3,3,0,0,0,34.91,63c0-1.43,0-2.71,0-3.85l0-3.86c0-.63,0-1.21,0-1.72V51.81l0-3.12a.43.43,0,0,1,.46-.31c.12,0,.18.21.18.64,0,.19,0,.35,0,.46a1.42,1.42,0,0,1,0,.26s0,.08,0,.1v1.42c0,2,0,3.71,0,5.25s0,3.29,0,5.23c0,.36,0,.95-.07,1.75l0,1.75c0,.42-.19.64-.58.64A.38.38,0,0,1,34.57,65.72Z"/><path class="cls-2" d="M39.29,65.55c-.17-.09-.26-.2-.26-.31a1.22,1.22,0,0,1,.17-.45.78.78,0,0,0,.16-.44l-.07-1.95-.15-6,0-2.68A30.74,30.74,0,0,0,39,50.59a3.06,3.06,0,0,0-.17-.55,1.89,1.89,0,0,1-.16-.6c0-.36.56-.53,1.68-.53h.12a2.74,2.74,0,0,1,1.94.77,5.16,5.16,0,0,1,1.16,1.89,12.74,12.74,0,0,1,.53,2.28q.09.66.15,2v.68a13.65,13.65,0,0,1-.36,3,15.25,15.25,0,0,1-1,3,6.29,6.29,0,0,1-1,1.59,7.56,7.56,0,0,1-1.21,1.12,1.94,1.94,0,0,1-.77.41A1.19,1.19,0,0,1,39.29,65.55Zm.87-1a4.55,4.55,0,0,0,1.46-1.23,6.69,6.69,0,0,0,1-1.78,11.4,11.4,0,0,0,.55-1.88,17.53,17.53,0,0,0,.31-2c0-.53.07-1,.07-1.53q0-6.47-3.57-6.46c-.31,0-.46.08-.46.24,0,.52,0,1.13.09,1.84s.08,1.33.08,1.84q0,1.21.18,4.23c.1,1.74.16,3.14.16,4.21v2.48Z"/><path class="cls-2" d="M48.62,65.44v-.27a.72.72,0,0,0,0-.22v-.11l-.4-2.68c-.1-.56-.17-1-.2-1.22-.13-1-.27-2.19-.42-3.46-.11-1-.32-2.66-.62-5L46.94,52a14.86,14.86,0,0,0-.49-2.75.63.63,0,0,1,.2-.2.48.48,0,0,1,.26-.09.71.71,0,0,1,.46.11.55.55,0,0,1,.12.4v.67q.69,7.24,1.44,13.56h0c0-.43.13-1.61.26-3.52l0-.65c.1-1.87.16-2.86.17-3q.07-.66.27-2L50,52.83l.07-1a4.21,4.21,0,0,0,0-.45,1.31,1.31,0,0,1,0-.28l0-.29a.17.17,0,0,1,0-.07l.1-.08c.21,0,.34,0,.4.15a.24.24,0,0,1,.09.14,1.11,1.11,0,0,1,0,.19l.05.2c.14.79.46,2.82.95,6.12s.78,5.46.89,6.51l.06,0,.82-9c0-.56.13-1.44.29-2.66a25.38,25.38,0,0,0,.22-3l0-.22V49a.53.53,0,0,1,.13-.41.66.66,0,0,1,.44-.12.47.47,0,0,1,.28.11.31.31,0,0,1,.15.24.6.6,0,0,1-.25.43s0,0,0,.13a1.41,1.41,0,0,1,0,.28l0,.21q-.26,2-.6,5.87l-.45,4.58L53.52,62l-.27,2.24-.11,1.13a.83.83,0,0,1-.08.4c-.05.09-.16.13-.32.13a.38.38,0,0,1-.42-.26,3.67,3.67,0,0,1-.09-.62l0-.34q-.52-3.41-1.6-12.14l-.06,0,0,0v0l-1.11,12.1v.4c0,.58-.13.86-.38.86S48.62,65.76,48.62,65.44Z"/><path class="cls-2" d="M57.73,65.52a.37.37,0,0,1-.28-.11.31.31,0,0,1-.12-.24c0-.19.12-.29.38-.29h.86q0-2.55-.16-6.42c-.06-2.07-.11-3.7-.17-4.88l0-1.13V51a12.77,12.77,0,0,0,0-1.42h-.77c-.15,0-.22-.1-.22-.31a.37.37,0,0,1,.17-.31,3.22,3.22,0,0,1,.82-.06h.63l.84,0A.52.52,0,0,1,60,49a.29.29,0,0,1,.11.24.48.48,0,0,1-.07.24.2.2,0,0,1-.2.11l-.27,0h-.48c-.15,0-.24,0-.27,0l0,.09q0,1.73.28,7c.18,3.24.27,5.56.27,7v.62c0,.19,0,.39,0,.6h.8c.34,0,.51.1.51.31a.42.42,0,0,1-.1.25.28.28,0,0,1-.21.13h-1.2Q58.54,65.52,57.73,65.52Z"/><path class="cls-2" d="M65.06,65.5a2.73,2.73,0,0,1-1-1.11,16.92,16.92,0,0,1-.55-3.65q-.27-3.08-.27-4.59V55c0-.34,0-.72,0-1.13a19.12,19.12,0,0,1,.14-2.28,5.21,5.21,0,0,1,.23-1,3.38,3.38,0,0,1,.41-.77,2.32,2.32,0,0,1,1.46-1,4.44,4.44,0,0,1,1.13-.13,1.72,1.72,0,0,1,.85.24.7.7,0,0,1,.44.58q0,.24-.36.24a1.74,1.74,0,0,1-.51-.15,1.35,1.35,0,0,0-.6-.16,2.39,2.39,0,0,0-1.11.26,2,2,0,0,0-.79.67,3.5,3.5,0,0,0-.42,1,5.87,5.87,0,0,0-.22,1.24,10.17,10.17,0,0,0-.07,1.33l0,1.24c0,.35,0,.74,0,1.15,0,1,.11,2.52.31,4.5a13.24,13.24,0,0,0,.6,3.43,1.64,1.64,0,0,0,.79.64,2.74,2.74,0,0,0,1.1.23,1.92,1.92,0,0,0,1.55-.65.55.55,0,0,1,.42-.26c.13,0,.2.1.2.31a1.06,1.06,0,0,1-.25.7,1.52,1.52,0,0,1-.66.45,3.77,3.77,0,0,1-1.55.31A2.25,2.25,0,0,1,65.06,65.5Z"/><path class="cls-2" d="M74.28,65.77a.41.41,0,0,1-.07-.27v-.26a.86.86,0,0,0,0-.25q0-3-.22-7.69H73a10.88,10.88,0,0,0-1.55.07c0,1.08.06,2.42.18,4,.13,1.82.2,3.16.2,4q0,.33-.24.33c-.23,0-.34-.1-.34-.31,0-.72,0-1.72-.1-3s-.1-2.36-.14-3.24q-.42-5.28-.42-10.11c0-.14.1-.22.29-.22a.29.29,0,0,1,.21.08.21.21,0,0,1,.05.21v1.64c0,.4,0,1.15.11,2.26l0,.75c0,.83,0,1.32,0,1.49v1.08c0,.39,0,.58.11.58l.85,0,.44,0L74,56.75l0,0c0-.65,0-1.9-.11-3.75s-.11-3.13-.11-3.76c0-.18.1-.27.31-.27a.48.48,0,0,1,.27.08.25.25,0,0,1,.11.21q0,4.32.15,9.5t.16,6.38v.31a.59.59,0,0,1-.08.31.24.24,0,0,1-.21.14A.27.27,0,0,1,74.28,65.77Z"/><path class="cls-2" d="M81.59,55.44v-.88a20.45,20.45,0,0,1,.22-3.24,6,6,0,0,1,.37-1.42,2.21,2.21,0,0,1,.63-.88,1.31,1.31,0,0,1,1-.38,2.27,2.27,0,0,1,1,.21,2.24,2.24,0,0,1,.73.54,3.28,3.28,0,0,1,.44.82,7.31,7.31,0,0,1,.31,1l.18,1A49.63,49.63,0,0,1,87,58.94V59c0,.74,0,1.42,0,2a20.14,20.14,0,0,1-.25,2.33,5.47,5.47,0,0,1-.25,1,5.94,5.94,0,0,1-.43.88,1.47,1.47,0,0,1-1.31.8Q81.58,66.1,81.59,55.44Zm3.76,9.63a3,3,0,0,0,.45-1.14,19.38,19.38,0,0,0,.44-3c0-.79.05-1.57.05-2.32v-.09l0-2.22c0-.79-.12-1.83-.26-3.1a12,12,0,0,0-.73-2.77,2.15,2.15,0,0,0-.59-.86,1.18,1.18,0,0,0-.79-.31.85.85,0,0,0-.66.35,2.82,2.82,0,0,0-.47,1,12.62,12.62,0,0,0-.44,2.75c0,.72-.07,1.47-.07,2.23v1.09a31.69,31.69,0,0,0,.29,3.77,23.1,23.1,0,0,0,.44,2.5,6.61,6.61,0,0,0,.71,1.79q.45.78,1,.78A.8.8,0,0,0,85.35,65.07Z"/><path class="cls-2" d="M90.54,63.6a25.52,25.52,0,0,1-.8-7.45c0-.72,0-1.36.05-1.93A12.25,12.25,0,0,1,90.1,52a6,6,0,0,1,.27-1,5.71,5.71,0,0,1,.46-.93,2.77,2.77,0,0,1,1.42-1.24,2.87,2.87,0,0,1,1-.18c.45,0,.67.13.67.38s-.11.26-.33.26a1.33,1.33,0,0,1-.31-.06l-.31,0a1.65,1.65,0,0,0-1.27.6A4.94,4.94,0,0,0,91,51.3a11.08,11.08,0,0,0-.33,2c0,.4-.09,1-.13,1.95l0,1.46V57.9a22.42,22.42,0,0,0,.31,3.92,9.43,9.43,0,0,0,.52,1.84,3.24,3.24,0,0,0,.8,1.2,1.74,1.74,0,0,0,1.2.51,2.15,2.15,0,0,0,1.88-1.11c0-.4,0-.92-.08-1.57,0-.33-.11-.63-.18-.91s-.19-.38-.31-.38l-.42.05-.47,0c-.34,0-.51-.12-.51-.37s.21-.23.62-.34a4.62,4.62,0,0,1,1-.15.57.57,0,0,1,.52.25,1.16,1.16,0,0,1,.17.68,16.38,16.38,0,0,0,.22,2,11.57,11.57,0,0,1,.22,2c0,.24-.09.36-.28.36-.36,0-.54-.17-.54-.49l0-.07v0A4.6,4.6,0,0,1,93,66C91.89,66,91.07,65.19,90.54,63.6Z"/><path class="cls-2" d="M101.44,67.36c0-.14.19-.32.53-.53l.27-.2a4.66,4.66,0,0,0,1-3.39c0-1,0-2.1-.11-3.28-.07-1.58-.11-2.57-.11-3l-.13-3.43c-.08-1.95-.11-3.29-.11-4l-.67,0-.66,0a.24.24,0,0,1-.21-.1.36.36,0,0,1-.08-.23q0-.27.18-.33a2.33,2.33,0,0,1,.84-.09l.84,0h1.17a.35.35,0,0,1,.26.11.36.36,0,0,1,.1.25.27.27,0,0,1-.12.26,1,1,0,0,1-.48.07h-.49c0,2,.09,4.48.25,7.46q0,.6.09,2,.15,2.78.15,3.3,0,.93,0,1.47a8.66,8.66,0,0,1-.15,1.15,4.14,4.14,0,0,1-.32,1.09,4.42,4.42,0,0,1-1.51,1.74C101.59,67.78,101.44,67.64,101.44,67.36Z"/><path class="cls-2" d="M109.46,65.83a2,2,0,0,1-.73-.57,3.59,3.59,0,0,1-.51-.82,5.49,5.49,0,0,1-.35-1,10.66,10.66,0,0,1-.34-1.88l0-.69c0-.14,0-.24,0-.28a.44.44,0,0,1,0-.09c-.08-.73-.17-2.32-.28-4.79S107,51.34,107,50v-.33c0-.39.11-.58.34-.58s.46.18.46.53v.16l0,.18q0,2.57.15,6.08c.11,2.34.21,4,.31,5.06a14.5,14.5,0,0,0,.38,2,7.44,7.44,0,0,0,.39,1.16,2.31,2.31,0,0,0,.54.77,1.2,1.2,0,0,0,.78.36,1.27,1.27,0,0,0,.67-.18,1.22,1.22,0,0,0,.46-.47,2.36,2.36,0,0,0,.25-.63,3.35,3.35,0,0,0,.12-.74,6.17,6.17,0,0,0,0-.73V60.07q0-1.68-.09-4.14l-.09-2.84,0-1.88c0-.83-.06-1.45-.06-1.88a.52.52,0,0,1,.13-.38.42.42,0,0,1,.31-.13.38.38,0,0,1,.3.13.56.56,0,0,1,.12.38V51c0,.74,0,1.41,0,2v2c0,1.43,0,2.69,0,3.77s0,2.32,0,3.67c0,.37,0,.7,0,1a5.2,5.2,0,0,1-.18.89,2.91,2.91,0,0,1-.37.89,1.87,1.87,0,0,1-.61.61,1.75,1.75,0,0,1-.93.25A2.08,2.08,0,0,1,109.46,65.83Z"/><path class="cls-2" d="M115.89,65.52a.37.37,0,0,1-.28-.11.31.31,0,0,1-.12-.24c0-.19.12-.29.37-.29h.87q0-2.55-.16-6.42c-.06-2.07-.12-3.7-.18-4.88l0-1.13V51a12.77,12.77,0,0,0,0-1.42h-.77c-.15,0-.22-.1-.22-.31a.35.35,0,0,1,.17-.31,3.22,3.22,0,0,1,.82-.06H117l.84,0a.5.5,0,0,1,.29.07.27.27,0,0,1,.11.24.48.48,0,0,1-.06.24.21.21,0,0,1-.2.11l-.27,0h-.49c-.14,0-.23,0-.26,0l0,.09q0,1.73.29,7c.18,3.24.27,5.56.27,7v.62a5.82,5.82,0,0,0,0,.6h.79c.34,0,.51.1.51.31a.36.36,0,0,1-.1.25.25.25,0,0,1-.21.13h-1.19Q116.7,65.52,115.89,65.52Z"/><path class="cls-2" d="M123.22,65.5a2.84,2.84,0,0,1-1-1.11,18,18,0,0,1-.54-3.65c-.18-2.05-.28-3.58-.28-4.59V55c0-.34,0-.72,0-1.13a21.47,21.47,0,0,1,.13-2.28,5.17,5.17,0,0,1,.24-1,3,3,0,0,1,.41-.77,2.32,2.32,0,0,1,1.46-1,4.44,4.44,0,0,1,1.13-.13,1.74,1.74,0,0,1,.85.24.69.69,0,0,1,.43.58c0,.16-.11.24-.35.24a1.74,1.74,0,0,1-.51-.15,1.35,1.35,0,0,0-.6-.16,2.46,2.46,0,0,0-1.12.26,2,2,0,0,0-.78.67,3,3,0,0,0-.42,1,5.89,5.89,0,0,0-.23,1.24,12.57,12.57,0,0,0-.06,1.33l0,1.24c0,.35,0,.74,0,1.15,0,1,.11,2.52.31,4.5a13.24,13.24,0,0,0,.6,3.43,1.64,1.64,0,0,0,.79.64,2.7,2.7,0,0,0,1.09.23,1.89,1.89,0,0,0,1.55-.65.58.58,0,0,1,.43-.26c.13,0,.2.1.2.31a1.11,1.11,0,0,1-.25.7,1.52,1.52,0,0,1-.66.45,3.8,3.8,0,0,1-1.55.31A2.25,2.25,0,0,1,123.22,65.5Z"/><path class="cls-2" d="M129.15,65.67a.38.38,0,0,1-.21-.39v-.42a2.41,2.41,0,0,1,0-.4v0l0-3.24,0-9.15c0-.94,0-1.76,0-2.46a.84.84,0,0,1,.11-.44.33.33,0,0,1,.29-.18h1.37a1.81,1.81,0,0,1,.47,0c.14,0,.22.17.22.37a.36.36,0,0,1-.14.29.52.52,0,0,1-.28.13h-.38l-.35,0-.36,0a.36.36,0,0,0-.21,0s-.05.11-.05.22c0,.69,0,1.32,0,1.88v4.65s0,.05,0,.05h0c.37,0,.76-.05,1.19-.05.24,0,.36.1.36.31a.43.43,0,0,1-.08.3.37.37,0,0,1-.26.08h-1.26c-.06,0-.09,0-.09.11l.05,3.28c0,1,0,2.19,0,3.52V65h2.08c.27,0,.4.1.4.29s-.06.38-.2.42a4.07,4.07,0,0,1-1.08.09h-.93A2,2,0,0,1,129.15,65.67Z"/><path d="M62.39,113.09a19,19,0,0,0-1.6-6.48c1.36-1.54,2.34-4.2.35-5.65-1.1-.83-2.7-1.42-4-.68,0-.16,0-.11-.18-.1,1.06-1,.49-2.65,0-3.83-.75-1.64-2.45-2.53-3.4-4-1.71-1.67-6.3-1.9-8.64-1.7a13.55,13.55,0,0,0-8.42,2.6,8.42,8.42,0,0,0-2.41,5.11c-.08.63.74,1.63-.31,1.71A9.72,9.72,0,0,0,29,103.15c-.13.13-.21.24-.33.38-.33.4-.61.82-.95,1.21-.1.12-.19.26-.28.39a7.77,7.77,0,0,0-.48.69,7.82,7.82,0,0,1-.51.84.3.3,0,0,0,0,.14,1.7,1.7,0,0,0-.19.19c-.2.32-.4.65-.61,1s-.29.45-.44.68a.8.8,0,0,0-.08.16c-.07.24-.13.48-.19.72s-.08.43-.29.55a.12.12,0,0,0,0,.08l-.17.48a1.07,1.07,0,0,1-.06.27.71.71,0,0,0-.08.38.12.12,0,0,1-.05.12c-.08,0-.1.12-.13.2a2,2,0,0,1-.09.22,4,4,0,0,0-.4.86,1.33,1.33,0,0,1-.1.34,2.38,2.38,0,0,0-.26,1,7.18,7.18,0,0,0,0,1c0,.06,0,.12,0,.17a1.05,1.05,0,0,0,0,.5,4,4,0,0,0,.64,1.51,1.28,1.28,0,0,1,.11.2l.28.55c.16.29.3.59.48.87a6.15,6.15,0,0,0,1.2,1.35c.18.16.37.29.56.43s.31.23.47.33l1,.61a3.78,3.78,0,0,0,.51.3c.55.22,1,.44,1.58.64,2.94.63,5.94,1,8.86,1.71,2.72.19,5.42.26,8.13.4A17,17,0,0,0,59.31,121a12.3,12.3,0,0,0,2.29-4.13C61.73,115.58,62.52,114.43,62.39,113.09Zm-4-12.78c3.1.13,4.49,2.89,2.64,5.41a19,19,0,0,1-6.37,5c1.5-1.78,4.14-2.59,5.44-4.68,2.3-2.79-.66-5.7-3.56-3.73-.67.69-.25-1.17.15-1.37A2.2,2.2,0,0,1,58.42,100.31Zm-4,10.3c-.47,3.14-3.45,2.77-5.91,2.84-3.86-.38-12,2.35-12.33-3.64,0-1.36-.64-2.64-.71-4a45.86,45.86,0,0,0-.18-4.84c2.32,2.81,6,3.08,9.4,2.7,3.88,0,8.53,1,11.45-2.26a10.18,10.18,0,0,1-.46,2.22c-.17.14-.35.23-.17.47-.27,2-.6,4.09-.84,6C54.51,110.26,54.18,110.34,54.38,110.61Zm-1.69,2.93c-.72,1.66-2.62.94-4,1a11.56,11.56,0,0,1-3.66.29c-1.38,0-2.72.62-4.09.24-.79.08-1.68-.22-1.26-1.16a15.59,15.59,0,0,0,2.16.17c1.82.26,3.62-.35,5.43-.29A40,40,0,0,0,52.69,113.54Zm-10.75-21h0l.08,0s0,0,0,0c.85-.1,1.71-.25,2.55-.37a.63.63,0,0,1,.19,0h0A13.54,13.54,0,0,1,48.56,92a7.69,7.69,0,0,1,3.08,1h.09a3,3,0,0,1,.86.55c.24.19.5.34.72.55a2.86,2.86,0,0,1,.35.43,11.5,11.5,0,0,1,2.4,3.72c.14,3.56-3.78,4.59-6.65,4.67-1.93-.17-3.89-.34-5.83-.32a11.13,11.13,0,0,1-5.37-.64c-5.82-2.1-2-8.53,1.89-9l.11-.06a4,4,0,0,1,1-.22l.55-.09h.08l.07,0Zm4.36-1s.13,0,.14,0S46.28,91.64,46.3,91.55Zm10.47,11.07h0a1,1,0,0,1,.24-.21,2.21,2.21,0,0,1,.83-.32,3.61,3.61,0,0,1,.93-.06,1.46,1.46,0,0,1,.76.25.87.87,0,0,1,.29.65,1.84,1.84,0,0,1-.4,1.55c-.3,1.07-2-1.21-3.32-.82-.5.12.43-1.11.6-1l.06-.08Zm.61,5.58a26.07,26.07,0,0,1-2.53,1.7c.43-.6,0-1.49.56-2,1-.71,2.68-1.36,3.77-2.53l.36-.38c.69-.44.6-2.58.87-1.82C61.23,105.28,58.9,107.12,57.38,108.2Zm2.42-2.07s-.07.14-.12.08S59.76,106.08,59.8,106.13Zm-2.52,2.36a2.53,2.53,0,0,1-.67.4C56.76,108.76,57.14,108.43,57.28,108.49Zm-2-1c.11-1.06.3-2.21.51-3.28.44-.45,1.29.07,1.91.26l.84.55C59.43,105.66,55.92,107,55.3,107.45ZM35.67,94.7c.87-1.49,2.57-2.25,4.1-2.9A13.4,13.4,0,0,1,45,91a1.79,1.79,0,0,1,1-.12c.14,0,.29-.07.37,0h.15a.6.6,0,0,1,.26,0H47a6.71,6.71,0,0,1,1.61.1h.07a5.06,5.06,0,0,1,2,.44h0a1.32,1.32,0,0,1,.28,0l.19,0c.27,0,.56.11.83.17.64.2.77.31.76.41a1.61,1.61,0,0,1,.63.5,2,2,0,0,1,.25.23c.32.53.57.91.82,1.29a.24.24,0,0,1,.15.06l0,0h0v0l.06.07c.24.24.81.68,1,.92a1,1,0,0,1,.54.56,10.15,10.15,0,0,1,.64,1.23,1.18,1.18,0,0,1,.14.22h0c.83,1.44-.6,4.17-2.51,5.12,0-.07.05-.15,0-.15a7.85,7.85,0,0,1-2.84,1,31.81,31.81,0,0,1-5.69,0c-3.45,0-7.44.81-10-2.17,3.38,2.7,6.65,1.54,10.5,2,3.14.15,7,.57,9.14-2.3,1.26-1.79.84-2.77,0-4,.35.16-.62-1.24-.87-1.57C52,91.45,47.64,91,43.4,92a22,22,0,0,0-5.31,1.2,7.21,7.21,0,0,0-3.24,5c-.33.68,1,2.76.6,2.4C33.78,98.94,34.62,96.44,35.67,94.7Zm-2.51,5.67s-.13,0-.12,0S33.17,100.31,33.16,100.37Zm-.47.13s-.12.07-.14,0S32.67,100.43,32.69,100.5ZM57.1,122.25s.09-.11.12-.06S57.12,122.3,57.1,122.25ZM60,119.66a5.75,5.75,0,0,1-2.56,2.22l-.36.23c-.13.13-.25.27-.39.39a1.26,1.26,0,0,1-.28.19.76.76,0,0,1-.35.17.25.25,0,0,1-.15,0,7.29,7.29,0,0,1-.69.28h0a1.14,1.14,0,0,1-.26.09h0c-3.13,1.18-6.64,1.06-10,.88-2.7-.14-5.48,0-8.08-.83a65.67,65.67,0,0,1-7-1.3c-.32-.13-.57-.25-.89-.37a6.5,6.5,0,0,1-1.13-.62,3.5,3.5,0,0,0-.53-.31,1.73,1.73,0,0,1-.34-.21,8.26,8.26,0,0,1-1.7-1.6c-.37-.47-.63-1-.95-1.5a2.21,2.21,0,0,1-.12-.27.27.27,0,0,1,0-.25s0-.06-.05-.08,0,0-.08,0a1.85,1.85,0,0,1-.26-.57.72.72,0,0,0-.1-.22.9.9,0,0,1-.14-.48c0-.26,0-.53-.05-.79l0-.25a1,1,0,0,1,0-.17,5.75,5.75,0,0,1,.31-1.22s0,0,0,0a4.11,4.11,0,0,1,.19-.56,1.52,1.52,0,0,1,.32-.6c0,.06,0,.13,0,.15s0,.31-.14.44,0,0,0,0,0,.27,0,.4v0a8,8,0,0,0,.05,1.76.78.78,0,0,1,0,.22,2.33,2.33,0,0,1,.05.28.36.36,0,0,1,0,.11,3.21,3.21,0,0,0,.26,1.13,1.77,1.77,0,0,0,.25.63,3.37,3.37,0,0,1,.25.46c.17.29.34.58.52.86a1.6,1.6,0,0,0,.25.27l.5.47s0,0,0,0c.13.3.45.41.68.62a1.88,1.88,0,0,0,.42.23c.24.13.48.28.72.4s.52.22.77.35a4.49,4.49,0,0,0,1.13.35,128.28,128.28,0,0,0,14.27,1.68c2.58.29,5.25.81,7.81.19,2.85-.79,5.94-1.81,7.89-4.18a9,9,0,0,0,1.24-2A25,25,0,0,1,60,119.66Zm1.35-3.59a2.54,2.54,0,0,1-.39,1.17s.06,0,0,.16c-.36.49-.66,1.15-1.19,1.41-1.84,2.21-4.75,3.09-7.4,3.93-3.35.74-6.75-.15-10.11-.35a99.4,99.4,0,0,1-12.76-1.65,5.21,5.21,0,0,1-1.44-.66,10.49,10.49,0,0,1-1.09-.69c-.25-.18-.46-.43-.7-.64s-.21-.19-.3-.3a5.69,5.69,0,0,1-.53-.73,5.49,5.49,0,0,1-.59-1.36c-.09-.36-.19-.71-.25-1.08s-.07-.82-.1-1.23c0-.18,0-.35,0-.53a2.32,2.32,0,0,1,.07-.69,2.66,2.66,0,0,0,0-.28.43.43,0,0,1,0-.17c.09-.1.07-.22.1-.33a.83.83,0,0,1,.06-.25,6,6,0,0,1,.22-1.19,3.92,3.92,0,0,1,.23-.6.22.22,0,0,1,0-.22l.27-1a.67.67,0,0,1,.06-.12c.16-.25.32-.49.47-.74l.56-.85.92-1.42c.2-.31.42-.61.63-.92l.22-.24c.14-.16.28-.31.4-.47a.93.93,0,0,0,.08-.2l.11-.05a.62.62,0,0,1,.17-.22c-.06-.14.37-.43.48-.57a5.77,5.77,0,0,1,1.06-1l0,0a.73.73,0,0,1,.48-.39c.38-.41,2.23-1.34,2.27-1.15a.72.72,0,0,1,.42-.15s.11-.08.57-.18c1.09,1.29.59,3.18.73,4.79.06,2.08.7,4.09.94,6.14.31,1.73,2,2.51,3.54,2.83-.65.87.22,1.51,1.13,1.45,1.48.32,2.89-.25,4.36-.23,1.45.27,2.86-.35,4.3-.28,1.49.38,3.39.17,3.7-1.62a2.85,2.85,0,0,0,1.2-1.37c.61-1.36,2.51-1.59,3.59-2.53.67-.58,1.34-1.18,2-1.73.25-.14.47-.87.75-.34,1.11,1.75,1.33,4.13,1.46,6.19A5.61,5.61,0,0,1,61.32,116.07Z"/><path d="M39.12,88.13a.55.55,0,0,1-.35-.17l-.16-.13-.11-.06h0a1.79,1.79,0,0,1-.46-.77l0-.08c-.29-.65-.92-1.37-.67-2.14-.1-2.74,3-4.85,2.39-7.66-.71-1.33-1.37-3-.72-4.46-.19-.8-.87.86-.57,1.17A3.54,3.54,0,0,0,39,75.62h0l.07.13a.87.87,0,0,1,0,.32,5.06,5.06,0,0,1,.1.68,3.06,3.06,0,0,1-.14,2.71c-1.29,2.44-3.44,5.61-1,8.07.32.49.88,1,1.51.83a.69.69,0,0,0-.11-.17A.87.87,0,0,1,39.12,88.13Z"/><path d="M56.16,71.86c-2.14,3.78.14,6-.69,8.58-.91,2.13-4.26,4-2.84,6.59.28.13,0,.39-.23.35-.67-.69-.35-1.72-.32-2.59.42-2.14,3-3.11,3.26-5.32-.06-1.74-1-3.52-.32-5.25C54.94,73.75,55.47,71.34,56.16,71.86ZM55.08,77.1A4.78,4.78,0,0,0,55,75.63,2.56,2.56,0,0,0,55.08,77.1Z"/><path d="M48.3,77.93v-.08c-.25-1.37-.68-2.66.48-4.3-.73-.67-1.19,1.83-1,2.36a6.7,6.7,0,0,0,.12.66s0,.05,0,.08a13.54,13.54,0,0,0,0,1c0,.26.12.51.19.77.36,2.19-2.47,3.09-3.11,4.93-.34,1.34-.49,3.25.65,4.24.63,0-.59-1.08-.41-1.77-.82-3.06,2.22-3.9,3.17-6.27a4.94,4.94,0,0,0-.05-1.54Z"/><path class="cls-3" d="M60.93,117.24a1.37,1.37,0,0,1-.24.29.2.2,0,0,1-.29,0l-.18,0c-.26,0-.25-.4,0-.41a.43.43,0,0,0,.33-.13,1.27,1.27,0,0,0,.2-.34,4.14,4.14,0,0,0,.18-.89c0-.11.08-.2.2-.2a.21.21,0,0,1,.21.2,2.83,2.83,0,0,1,0,.29,5.61,5.61,0,0,0,.74-2.61c-.13-2.06-.35-4.44-1.46-6.19-.27-.53-.5.2-.75.34-.68.55-1.35,1.15-2,1.73-1.08.94-3,1.17-3.59,2.53a2.85,2.85,0,0,1-1.2,1.37c-.31,1.79-2.22,2-3.7,1.62-1.44-.07-2.85.55-4.3.28-1.47,0-2.88.55-4.36.23-.91.07-1.78-.59-1.13-1.45-1.53-.32-3.22-1.1-3.54-2.83-.24-2-.88-4.06-.94-6.14-.14-1.61.36-3.49-.73-4.79-.19.07-.46.1-.62.18h.19c.12,0,.18,0,.13,0a.75.75,0,0,1,.43.64.7.7,0,1,1-1-.59,3.37,3.37,0,0,0-1.51.69c-.13.13-.78.36-.91.54a.64.64,0,0,1,.23,0,.7.7,0,1,1-.69.7.58.58,0,0,1,.06-.29l0,0c-.22.25-1.56,1.17-1.5,1.51a.71.71,0,0,1,.42-.14.69.69,0,1,1,0,1.38.71.71,0,0,1-.7-.69.73.73,0,0,1,.07-.3l-.11.05a.93.93,0,0,1-.08.2c-.12.16-.26.31-.4.47l-.22.24c-.21.31-.43.61-.63.92l-.92,1.42-.56.85c-.15.25-.31.49-.47.74a.67.67,0,0,0-.06.12l-.27,1a.22.22,0,0,0,0,.22l0-.08a2.26,2.26,0,0,1,.11-.22.79.79,0,0,1,.67-.42.69.69,0,0,1,.6.35.73.73,0,0,1,.07.54.45.45,0,0,0,0,.11v-.05a.72.72,0,0,1-.19.38l-.05,0a5.67,5.67,0,0,0-.26,1,1.64,1.64,0,0,1,0,.22.7.7,0,0,1-.69.69.69.69,0,0,1-.69-.69v-.07a.83.83,0,0,0-.06.25c0,.11,0,.23-.1.33a.43.43,0,0,0,0,.17,2.66,2.66,0,0,1,0,.28,2.32,2.32,0,0,0-.07.69c0,.18,0,.35,0,.53,0,.41,0,.83.1,1.23s.16.72.25,1.08a5.49,5.49,0,0,0,.59,1.36,5.69,5.69,0,0,0,.53.73c.09.11.2.2.3.3s.45.46.7.64a10.49,10.49,0,0,0,1.09.69,5.21,5.21,0,0,0,1.44.66,99.4,99.4,0,0,0,12.76,1.65c3.36.2,6.76,1.09,10.11.35,2.65-.84,5.56-1.72,7.4-3.93.53-.26.83-.92,1.19-1.41C61,117.24,61,117.22,60.93,117.24Z"/><path class="cls-3" d="M56.1,101.41a10.18,10.18,0,0,1-.46,2.22c-.18.14-.34.23-.17.47-.27,2-.6,4.09-.84,6-.54.42-.11.4-.27.86-.81,2.89-3.49,2.43-5.89,2.53-3.85-.38-12,2.35-12.33-3.64,0-1.36-.64-2.64-.71-4a45.86,45.86,0,0,0-.18-4.84c2.32,2.82,6,3.08,9.4,2.7C48.53,103.67,53.18,104.67,56.1,101.41Z"/><path class="cls-3" d="M51.78,93l.18.08a0,0,0,0,1,0,0Z"/><path class="cls-3" d="M56.07,98.26a11.7,11.7,0,0,0-2.41-3.72,3.16,3.16,0,0,1,.42,1.08c.06.25-.33.36-.38.1A2.54,2.54,0,0,0,53,94.4a6.67,6.67,0,0,0-.67-.52,2.72,2.72,0,0,0-.73-.48.21.21,0,0,1-.14-.25.2.2,0,0,1,.21-.15A14.56,14.56,0,0,0,49,92a15.21,15.21,0,0,0-4.26.09h0a.7.7,0,0,1,0,1.39.71.71,0,0,1-.69-.7.69.69,0,0,1,.5-.66c-.22,0-.45.09-.67.15a10.48,10.48,0,0,0-1.88.23v0h0l.36,0a.22.22,0,1,1,.12.43c-.19,0-.39,0-.58.06l-.41.07a.73.73,0,0,1,.23.5.71.71,0,0,1-.7.69.68.68,0,0,1-.54-.27.59.59,0,0,0,0,.29.22.22,0,0,1-.43.11,1.18,1.18,0,0,1,0-.53.52.52,0,0,0-.08-.37.38.38,0,0,1-.1-.32A.42.42,0,0,1,40,93c-3.55.27-7.38,6.53-2.39,8.68,1.84,1.06,3.92,1,6,.93,1.58,0,3.15.15,4.74.19C51.38,103.26,56.2,102.11,56.07,98.26Zm-12.14.55c0,.7-1.18,0-1.5-.27C40.25,96.77,43.22,96.28,43.93,98.81Zm-.66-1.35c.12.05.14.11.1.19ZM43,101a2,2,0,0,1-2.49-1c-.13-1.13,1.87-.51,2.37,0,.22,0,.84,0,.63.4C44.81,101.48,44,100.93,43,101Zm1.27-5.35a2.06,2.06,0,0,0-.13,1.22.84.84,0,0,1-.26.06l.17.17c.17.2-.12.48-.29.29-.32-.37-.71-.68-.68-1.22,0-.25.4-.25.4,0,.14,0,.27.26.3.09,0-.65.56-1.19.2-1.8a1.4,1.4,0,0,0-.41,1,.77.77,0,0,1,.14-.25,0,0,0,0,1,0,0,.77.77,0,0,0-.15.3h0a.14.14,0,0,1,0-.06s0,0,0,0,0,0,0,0h0v.07s0,0,0,0v0h0v-.17a0,0,0,0,1,.05,0,3.53,3.53,0,0,0,0,.46s0,0,0,0a0,0,0,0,1,0,0v0s0,0,0,0h0s0,0,0,0h0v0a0,0,0,0,1,0,0,.2.2,0,0,1-.06-.12.46.46,0,0,0-.19,0c-.43-.8.71-2.85,1.09-1.22.21.34,0,.31-.06.62S44,95.44,44.31,95.64ZM47.92,92c0,.16-.2.11-.2,0Zm-2.64,6c-1,.19,1.47-2.18,2-1.12.09.76-1,1-1.54,1.08-.35,0-.45.33-.76.4C44.63,98.17,45.29,98.15,45.28,98ZM45,100.57c.11,0,.24-.07.28,0S45.1,100.76,45,100.57Zm.7.34c0-.08.13-.11.16,0Zm2-.67c-.67.46-1.48.29-2.25.56,0-.26-.5-.45-.3-.56.84-.44,1.6-1.35,2.59-1.28S48.4,100.05,47.72,100.24Zm3.06-7.54c.08.06.18,0,.19.12S50.8,92.87,50.78,92.7Z"/><path class="cls-3" d="M51,92.83c.22,0,.14.15,0,0Z"/><path class="cls-3" d="M59.49,119.48c-2.15,2.14-5.25,3.11-8.13,3.79a27.91,27.91,0,0,1-7.06-.36A128.28,128.28,0,0,1,30,121.23a4.49,4.49,0,0,1-1.13-.35c-.25-.13-.52-.22-.77-.35s-.48-.27-.72-.4a1.88,1.88,0,0,1-.42-.23c-.23-.21-.55-.32-.68-.62,0,0,0,0,0,0l-.5-.47a1.6,1.6,0,0,1-.25-.27c-.18-.28-.35-.57-.52-.86a3.37,3.37,0,0,0-.25-.46,1.77,1.77,0,0,1-.25-.63,3.21,3.21,0,0,1-.26-1.13.36.36,0,0,0,0-.11,2.33,2.33,0,0,0-.05-.28.78.78,0,0,0,0-.22,8,8,0,0,1-.05-1.76v0c.05-.13.11-.26,0-.4s0,0,0,0,0-.31.14-.44,0-.09,0-.15a1.52,1.52,0,0,0-.32.6,4.11,4.11,0,0,0-.19.56s0,0,0,0a5.75,5.75,0,0,0-.31,1.22,1,1,0,0,0,0,.17l0,.25c0,.26,0,.53.05.79a.9.9,0,0,0,.14.48.72.72,0,0,1,.1.22,1.85,1.85,0,0,0,.26.57s.07-.05.08,0,.06.07.05.08a.27.27,0,0,0,0,.25,2.21,2.21,0,0,0,.12.27c.32.5.58,1,.95,1.5a8.26,8.26,0,0,0,1.7,1.6,1.73,1.73,0,0,0,.34.21,3.5,3.5,0,0,1,.53.31,6.5,6.5,0,0,0,1.13.62c.32.12.57.24.89.37a65.67,65.67,0,0,0,7,1.3c2.6.82,5.38.69,8.08.83,3.37.17,6.82.32,10-.88a.37.37,0,0,1-.32-.07.21.21,0,0,1,0-.29.18.18,0,0,1,.22,0h.1l0,0,.13,0a.2.2,0,0,1,.25.14.17.17,0,0,1,0,.18.53.53,0,0,0,.18,0c.16-.06.32-.14.48-.19h-.15a.2.2,0,0,1,0-.4h0a.18.18,0,0,1,.1,0,.26.26,0,0,1,.15-.07.7.7,0,0,0,.14,0l.12-.14a.18.18,0,0,1,.17,0c.15-.14.29-.32.42-.44s.48.11.29.28l-.11.11A7,7,0,0,0,60,119.66C61.49,116.47,61.26,117.46,59.49,119.48Zm-35.66-6.25v0l.16-.05C24,113.24,23.89,113.23,23.83,113.23Z"/><path class="cls-3" d="M56.72,96.75a10.8,10.8,0,0,1-.53-1.08l0,0a1.26,1.26,0,0,1,.12.29,2.33,2.33,0,0,1,.06.53.68.68,0,0,1,.13.42l-.14-.14V97a.2.2,0,0,1-.4,0,5.34,5.34,0,0,0,0-.8.21.21,0,0,1-.35-.15.54.54,0,0,0-.11-.26,1,1,0,0,1-.16-.32.21.21,0,0,1,.25-.25l.1,0a2.11,2.11,0,0,0-.38-.11.2.2,0,0,1-.14.16.22.22,0,0,1-.25-.14c0-.08-.17-.18-.24-.25s-.2-.28-.34-.4a.2.2,0,0,1,0-.28.2.2,0,0,1,.24,0c0-.16-.39-.41-.47-.58a5.9,5.9,0,0,0-.72-1l.11.16c.14.22-.21.42-.35.2a1.24,1.24,0,0,0-.67-.52l-.58-.21a.22.22,0,0,1-.34-.08h0a.15.15,0,0,1-.12-.11L51.1,92l-.17,0a.2.2,0,0,1-.29.08c-.08,0-.16-.09-.24-.12h0a.18.18,0,0,1-.09-.06,4.71,4.71,0,0,0-1.74-.32.22.22,0,0,1,0-.44h.06a2,2,0,0,0-.6,0,4.46,4.46,0,0,0-1.3-.07l.67,0a.2.2,0,0,1,0,.4c-.38,0-.76,0-1.14-.07-.2,0-.39,0-.59,0a.72.72,0,0,0-.43.1A.2.2,0,0,1,45,91a.77.77,0,0,1,.23-.1,8.88,8.88,0,0,1-1.13.11,11.37,11.37,0,0,0-5.52,1.33A6.75,6.75,0,0,0,34.5,98c-.51,1.07,1.94,4,.6,1.71-.85-2.24.71-4.69,2.38-6.12,1-.93,2.33-.87,3.54-1.23,3.45-.58,7.06-1.57,10.3,0a10,10,0,0,1,4.89,5.54c-.05-.82.46,1.1.08,1.56A5.6,5.6,0,0,1,53,102.72c-2.68.85-5.52.39-8.28.21-3.08.18-6.25.22-8.78-1.83,2.39,2.82,6.13,2.25,9.41,2.18,2.7,0,5.63.58,8.18-.56.27,0,1-.64.95-.31.45-.28,1.46-.69,1.33-1.23-.26.39-1.09,1-.83.72.84-.77,1.85-1.43,2.13-2.63C57.25,98,57.43,97.91,56.72,96.75Zm.38,1L57,97.6a.18.18,0,0,1-.17.11.21.21,0,0,1-.21-.2h0s0,0,0,0l0-.09-.07-.07,0,0h0a.2.2,0,0,1-.14-.24.2.2,0,0,1,.25-.14.72.72,0,0,1,.48.61C57.12,97.59,57.16,97.79,57.1,97.79Z"/><path class="cls-3" d="M46.12,90.88l.3,0c-.09-.1-.23-.07-.38,0Z"/><path class="cls-3" d="M51.68,91.79a8,8,0,0,1,.94.31l.15.07a.35.35,0,0,0-.09-.1,3.32,3.32,0,0,0-1.46-.48l.09,0A1.56,1.56,0,0,1,51.68,91.79Z"/><path class="cls-3" d="M54.94,94.66c.12.11.28.22.31.39a.09.09,0,0,1,0,0h.13c.24,0-.59-.64-.78-.83h0C54.73,94.39,54.81,94.55,54.94,94.66Z"/><path class="cls-3" d="M54.69,110.77c1.5-1.78,4.14-2.59,5.44-4.68,2.3-2.79-.66-5.7-3.56-3.73-.68.69-.25-1.16.15-1.37a2.2,2.2,0,0,1,1.7-.68c3.1.14,4.49,2.88,2.64,5.41A19,19,0,0,1,54.69,110.77Z"/><path class="cls-3" d="M52.69,113.54c-.73,1.66-2.62.94-4,1a11.56,11.56,0,0,1-3.66.29c-1.38,0-2.72.62-4.09.24-.78.08-1.69-.22-1.26-1.16a15.59,15.59,0,0,0,2.16.17c1.82.26,3.62-.35,5.43-.29A40,40,0,0,0,52.69,113.54Z"/><path class="cls-3" d="M54.85,109.9c.48-.66-.07-2,1-2.16a9.75,9.75,0,0,1,2-1.22c.54-.24.94-1,1.46-1.06.44-.9,1-1.31,1-2.5a2,2,0,0,1,.16,2C59.27,107.2,56.79,108.7,54.85,109.9Z"/><path class="cls-3" d="M57.71,104.48c-.51.12.75.26.85.5s.18.13.31.2a8.45,8.45,0,0,1-1.31,1.08c-.47.1-2.49,1.6-2.24.86.2-1,.26-2,.49-3C56.19,103.75,57.26,104.19,57.71,104.48Zm-.89-.13c0-.15,0-.15-.1-.17C56.14,104,56.42,104.26,56.82,104.35Z"/><path class="cls-3" d="M59.83,102.94a1.1,1.1,0,0,1-.15.59.22.22,0,0,1-.38-.22.61.61,0,0,0,.05-.54.47.47,0,0,0-.05-.1s0,0,0,0l0,0-.06,0h0l-.06,0-.15,0h-.32a3,3,0,0,0-.74.08,1.68,1.68,0,0,0-.63.26h0l0,0,0,0,0,0,0,0h0s0,0,0,.06h0v.07c0,.12-.11.22-.22.22a.22.22,0,0,1-.22-.22.65.65,0,0,1,.11-.43c-.09-.08-.28.13-.39.16-.75,1.42-.24.29,1.57,1.22.42.29.8.55,1.26.82C59.46,104.48,60.13,103.45,59.83,102.94Z"/><path class="cls-3" d="M57.28,108.49a2.53,2.53,0,0,1-.67.4C56.76,108.76,57.14,108.43,57.28,108.49Z"/><path class="cls-3" d="M61,117.49a.86.86,0,0,1,.21-.55C61.26,117.19,61.09,117.33,61,117.49Z"/><path class="cls-3" d="M57.23,99.88c-.07.16,0,.31-.26.3Z"/><path d="M57,97.3h0L57,97.2h0Z"/><path d="M32.69,100.5s-.12.07-.14,0S32.67,100.43,32.69,100.5Z"/><path class="cls-3" d="M46.3,91.55s.13,0,.14,0S46.28,91.64,46.3,91.55Z"/><path class="cls-3" d="M59.68,106.21s.08-.13.12-.08S59.73,106.27,59.68,106.21Z"/><path class="cls-3" d="M50.94,91.53l.11,0s0,0-.12,0Z"/><path class="cls-3" d="M57.22,122.19s-.1.11-.12.06S57.19,122.14,57.22,122.19Z"/><path class="cls-3" d="M38.87,88a.28.28,0,0,0,.26.11A1.19,1.19,0,0,1,38.87,88Z"/><path d="M55.08,77.1A2.56,2.56,0,0,1,55,75.63,4.76,4.76,0,0,1,55.08,77.1Z"/><path d="M43.55,100.32c.21-.35-.41-.39-.63-.4-.5-.48-2.5-1.1-2.37,0A2,2,0,0,0,43,101C44,100.93,44.8,101.48,43.55,100.32Zm-2,.19a.33.33,0,0,1-.22-.15,1.37,1.37,0,0,1-.28-.26.22.22,0,0,1-.05-.2s-.09-.05-.15-.12a.67.67,0,0,1,.35,0h0a2.64,2.64,0,0,1,.63,0,2.29,2.29,0,0,1,1.43.76A1.76,1.76,0,0,1,41.53,100.51Z"/><path d="M45.47,100.8c0-.26-.5-.45-.3-.56.82-.44,2.72-2.26,3.19-.68C47.9,100.7,46.48,100.48,45.47,100.8Zm2-.69c1.34-1.1-.24-.92-1-.36C45.19,100.43,46.81,100.33,47.48,100.11Z"/><path d="M44.46,94.72c-.38-1.63-1.52.42-1.09,1.22a.45.45,0,0,1,.19,0v0a.67.67,0,0,1,0-.2.65.65,0,0,1,0-.19,1.42,1.42,0,0,1,.41-1c.36.61-.18,1.15-.21,1.8,0,.17-.15,0-.29-.09a0,0,0,0,1,0,0,1,1,0,0,0,.39.75.51.51,0,0,0,.27,0,2.06,2.06,0,0,1,.13-1.22c-.3-.2.13,0,.09-.3S44.67,95.06,44.46,94.72Z"/><path d="M43.93,98.81c0,.7-1.17,0-1.5-.27C40.25,96.77,43.22,96.28,43.93,98.81Zm-2-1.28c.28.39,1.12,1.39,1.57,1C43.11,98.23,42.6,96.94,42,97.53Z"/><path d="M45.28,98c-1,.19,1.47-2.18,2-1.12.09.76-1,1-1.54,1.08-.35,0-.45.33-.76.4C44.63,98.17,45.29,98.15,45.28,98Zm.74-.61c.39.07.78.07.93-.38A1.1,1.1,0,0,0,46,97.41Z"/><path class="cls-3" d="M41.84,99.78l0,0A.18.18,0,0,1,42,100a.21.21,0,0,1,.11.18.19.19,0,0,1,0,.13.18.18,0,0,1-.19.19,1.07,1.07,0,0,1-.32-.07H41.5a.4.4,0,0,1-.28-.1h0c.41.21.87.59,1.37.44C43.89,100.58,42.54,99.87,41.84,99.78Z"/><path class="cls-3" d="M41,99.81l.08,0,.07,0a.67.67,0,0,0-.35,0c.06.07.1.11.15.12A.41.41,0,0,1,41,99.81Z"/><path class="cls-3" d="M47.48,100.11c-.67.22-2.29.32-1-.36C47.25,99.19,48.82,99,47.48,100.11Z"/><path class="cls-3" d="M42,97.53c.63-.59,1.14.7,1.57,1C43.09,98.92,42.25,97.92,42,97.53Z"/><path class="cls-3" d="M46,97.41A1.1,1.1,0,0,1,47,97C46.8,97.48,46.41,97.48,46,97.41Z"/><path class="cls-4" d="M116.52,118.09c.27-.44-1-.35-1.11-.71a10.61,10.61,0,0,0-2.4-.45,1.29,1.29,0,0,1,1.14-.2c2,.36,4.62,1.71,3.6,3.3,1.87-.09,2.57,1.23,2,2.29-1.21,1.93-5.33,2-7.78,3a39.61,39.61,0,0,1-10.44,2.46C85.5,129.41,69.12,128.67,53,130c-4.37.73-14.54.87-10.73-3.95,1-1.35,3.72-1.23,3.42-2.37a1.25,1.25,0,0,1,.87-1c1.24-.49-1.55-.73-1.9-1.37-1.07-1,0-2.28,1.22-3,.14-.34-1.28-.37-1.7-.63-1.87-1.61,2.15-3.13,3.18-4.43,2.06-3.22,7.74-4.62,12.62-4,3.83.76,3,.87,7.2.41,4.81-.48,9.41-2.05,14.31-2a7.74,7.74,0,0,1,4.18,1.22c1.21-.87,3.2-1,4.82-1.41a16.56,16.56,0,0,1,11.35,1.59,14.66,14.66,0,0,1,11.08,1.39c1.17.59,1.72,1.58.89,2.46-.62.5-1.34.49-.14,1,1,.45,2.56,1.27,2,2.21-.68.67-2,.28-2.94.61-.26.12-.48.58-.24.74,2.12,2.21-3.94,1.47-5.6,1.45-.72-.07-1.42-.1-2.14-.17.58.53,1.89,1,1.7,1.78-.09.16-.08.33.22.33a35.9,35.9,0,0,0,7.4.12C116.26,120.83,119.27,119.33,116.52,118.09ZM106.58,121c-3.15,3-11.85,4.69-17.81,2.76a.61.61,0,0,0-1,.25c-2.91,2.87-9.87,1.64-14.14,1.37a20.88,20.88,0,0,1-3.87-1.26c-2.65,2.51-7.85,2.68-12,2.79a40.82,40.82,0,0,1-9.08-.79c-.92,0-1.78-1-2.48-.45-.54-.06-.77.43-1.17.72s0,.68.21,1c2.17,1.81,5.52.18,8.24.21,1.83,0,3.59.41,5.41.45,3.27-.38,6.45-1.09,9.83-.8,5.41.6,4-1.47,5.87-1.23a29.43,29.43,0,0,1,5.23.83c4.4,1.54,9-.34,13.39-.9,8.88.95,4-1.23,13.52-1.82,4.58-.33.45-1.72,6.46-1.69,1.23.1,2.68-.36,2.1-1.35A25.78,25.78,0,0,1,106.58,121Zm-43-10.87a12.63,12.63,0,0,1,3.77,2.43c0,.28.47.41.47.69.07,0,.4.11.3.22s.11.15.11.24c.29,0,0,.43.42.44-.3,1.06-2.13-2.45-3.17-2.61-3.77-2.76-10.35-2.85-14.8-.8a6.85,6.85,0,0,0-3,2.68c-.35.15-.49.42-.77.61s-.65.21-.51.5c-.58.31-.81.77-1.46,1a9.2,9.2,0,0,0-.74,1.57c.88.7,2.43.66,3.65.81,5.16.62,10.3-.64,15.51-.31,6.4-.26,12.78-.44,19.19-.38,4.18-.13,8.31-.63,12.5-.72a61.64,61.64,0,0,0,16.34-2.92c1-.14.18-.2.14-.51,1.46.43,2.59-.49,2.23-1.49-.7-1.06-2.4-1.67-3.87-2.16a13.71,13.71,0,0,0-7.7-.17,7.41,7.41,0,0,1,2.54,2.68c.1.09,0,.18-.14.17-3.31-5.06-12.11-6.07-18.65-3.06a6.27,6.27,0,0,1,1.22,2.52c.29.23,2.18,2.2,1,1.8-.08-.67-.82-1.1-1.25-1.66-.55-.87-.45-1.92-1.49-2.65C80.45,105.87,70,110.43,63.59,110.14Zm-17.2,8.15c-3.5,1.8-1,4.28,2.92,3.6,1.77-.23,2.74-1.43,4.53-1.54,2.68-.19,3,2.18,7.44,2.2,2.52.48,3.75-.65,5.19-1.78,4.08-1.22,7.33,2.65,11.45,1.31,1.22-.19,1.19-1.15,2.11-1.59,5.17-1.85,10.41,2,15.73,1.1,1.84-.41,2.49-.48,2.06-1.91,3.41-2.33,9-.69,13.3-1,2.09-.08,1.25-.59.91-1.58-.12-1.39,3.32-.29,3.37-1.48-.25-1-2-1.48-3.07-2a65,65,0,0,1-20.27,3.34,135.75,135.75,0,0,1-14.27.59c-7.18.1-14.37.34-21.53.59-2.71.13-5.37.63-8.08.18a5.85,5.85,0,0,1-1.1,0C46.84,118,46.4,118.63,46.39,118.29Zm-2.61,7c-3.44,1.78-2.18,4.46,2.18,4.69,3.45.27,6.87-.32,10.26-.64,5.41-.49,10.84-.08,16.25-.52,11.13-.46,22.5-.2,33.39-2,3.78-1,7.33-2.27,11.12-3.24,1.94-.34,3.76-2,1.91-3.15-.41-.13-1,.12-1.39,0-.67-.09-1.21.41-1.85.52.55.85-.38,1.74-1.73,1.7-1.26.17-3.43-.23-4.18.58,0,.44-.35.68-1,.78-2.56.68-5.56.44-8,1.31a5.75,5.75,0,0,1-2.22,1c-1.73.36-3.41,0-5.14-.12-2.73.19-5.2,1.25-8,1.4-3.23.49-5.91-.78-9-1.1-.8,0-2.18-.62-2.67-.06-.31.85-1.64,1-2.71,1.14-3.48-.08-7.06-.32-10.43.55-2.55.45-5-.28-7.58-.27-2.83.18-6.79,1.62-8.52-.71-.43-.82.93-1.49,1.66-2-.27-.18-.38-.69-.86-.55A5.28,5.28,0,0,0,43.78,125.3Zm2.42-1.24c.4,3.42,17.37,2.93,20.65,1.38,2.7-.54,4.08-3.09,1.27-4.15-1.21-.84-2.09.12-2.8.79-2,1.53-6.19.74-8.43-.23-2-1.74-3.67-1.44-5.93-.13C49.27,122.44,45.61,122.19,46.2,124.06Zm38.06-3.7c-6.56-.57-3.12,2.65-9.25,2.23-2.24-.1-3.74-1.57-6-1.7s.79.56.86,1.4a1.91,1.91,0,0,1,0,1.62A19.94,19.94,0,0,0,73.74,125c4,.54,8.11.89,12-.1C89.61,123.59,87.45,121.16,84.26,120.36Zm4,3.08c4.24,1,9.15,1.26,13.31-.18,1.8-.63,4.79-1.58,4.41-3.19a4.47,4.47,0,0,0-4.49-1.22c-1,.22-2.81.24-3.19,1,.58,1.17-.81,1.81-2.35,2-3.45.61-6.77-.6-10-1.32C87.11,121.29,88.66,122.26,88.24,123.44Z"/><path class="cls-4" d="M114.25,118.13c.57.18,1.3,0,1.77.32.2.21.91.58.48.81C115.61,119.6,113.8,118.8,114.25,118.13Zm.51.45a1.68,1.68,0,0,0,1.36.47C115.88,118.61,115.45,118.44,114.76,118.58Z"/><path class="cls-4" d="M109.2,119.59c.74-.28,1.72.35,2.23.69.24.62-.9.37-1.34.14S109.63,119.81,109.2,119.59Zm.8.31a1.17,1.17,0,0,0,.94.41Z"/><path class="cls-3" d="M63.59,110.14c6.37.28,16.91-4.27,21.8-1.07,1,.73.94,1.78,1.49,2.65.43.56,1.17,1,1.25,1.66,1.24.4-.71-1.57-1-1.8A6.33,6.33,0,0,0,86,109.06c6.53-3,15.35-2,18.65,3.06.15,0,.23-.08.14-.16a7.44,7.44,0,0,0-2.54-2.69,13.71,13.71,0,0,1,7.7.17c1.48.5,3.17,1.1,3.87,2.16.29,1-.66,1.91-2.23,1.5,0,.28.84.4-.14.5a61.57,61.57,0,0,1-16.34,2.92c-4.19.09-8.32.59-12.5.72-6.41-.06-12.79.12-19.19.38-5.21-.33-10.35.93-15.51.32-1.22-.16-2.76-.12-3.64-.82a10,10,0,0,1,.73-1.57c.65-.24.88-.7,1.46-1-.11-.29.28-.34.51-.5s.42-.46.78-.61a6.82,6.82,0,0,1,3-2.68c4.45-2,11-2,14.8.8,1,.15,2.9,3.68,3.18,2.61-.41,0-.14-.39-.43-.44,0-.09-.2-.12-.1-.24s-.25-.17-.31-.22c0-.28-.47-.41-.47-.69A12.63,12.63,0,0,0,63.59,110.14Zm41.73,3.52c.12.09.12.09.27,0-.58,0,1.18-.51,1.52-.68.24.1.38-.1.19-.16.08-.23-.28-.08-.45,0-5.27,2.21-11.69,2.2-17.69,2.62-3.74.3-8.13-.21-11.58.43a191.81,191.81,0,0,0,21.29-.9c1.45-.13,3.12-.38,4.38-.61.17-.3,1-.43,1.47-.47C105,114,105.06,113.66,105.32,113.66Zm-46.27-2.23a10.7,10.7,0,0,1,5.47,2c.34-.25-1.42-1-1.73-1.34C61.91,111.75,59.83,111.08,59.05,111.43Zm36.71-2.33a10,10,0,0,1,4.68,2C100.8,110.16,96.81,108.76,95.76,109.1Zm-16.12.48c2.64.47,3.08.76,4.62,2.06C84.1,110.37,81.29,109.33,79.64,109.58Zm28.57.79c1.84.21,1.78,1,2.76,1.44C111.35,111.22,108.94,109.79,108.21,110.37Z"/><path class="cls-3" d="M46.39,118.29c0,.34.46-.26.69-.05a5.87,5.87,0,0,0,1.1.05c2.71.45,5.37-.06,8.08-.19,7.16-.24,14.35-.49,21.53-.59a133.1,133.1,0,0,0,14.27-.59,64.66,64.66,0,0,0,20.27-3.34c1.1.56,2.81,1,3.07,2,0,1.19-3.49.09-3.37,1.48.29.94,1.22,1.52-.91,1.58-4.27.31-9.89-1.33-13.3,1,.42,1.4-.19,1.51-2.06,1.91-5.32.92-10.56-3-15.73-1.09-.92.43-.89,1.4-2.11,1.58-4.12,1.34-7.37-2.53-11.45-1.31-1.48,1.15-2.61,2.26-5.19,1.78-4.46,0-4.7-2.37-7.43-2.2-1.8.11-2.77,1.31-4.54,1.54C45.49,122.57,42.84,120.11,46.39,118.29Zm58.51-.82c1-.42,1.77.07,2.65.38,1.24.38,2.16-.39,1.89-1.21.08-.43,1-.29,1.2-.52-.46-.5,2.29-.49,1.77-1.18-.12-.22-.63-.74-.91-.32.12.19.51.24.52.5-.94.22-1.63.71-2.54,1-.68.12-.34.77-.44,1.12-.68,1.07-2-.1-3-.16-.51-.09-2.35.37-1.12.41C104.47,117.47,104.66,117.69,104.9,117.47Zm-10.32,2.37a12.67,12.67,0,0,1-2.22-.4c-1.39-1.28-1.34,1-2.9.19a14.76,14.76,0,0,1-3-1.19,1.27,1.27,0,0,0-1.46.18c.3.35.52.23.71,0a31.31,31.31,0,0,0,4.32,1.51c.28,0,.64,0,.75-.17.84-1,2.4.36,3.69.19,1.28,0-.13-2.28-.93-1.7C94.19,118.67,94.69,119.38,94.58,119.84Zm-35.45-.56c.72.42.57,1,.44,1.52s.86.94,1.59.87c1.17,0,1.42-.88,2.08-1.37.72-.21,2.25.16,2.41-.59,0-.26.16-1.08-.53-.71.08.19.23.29.18.56,0,.7-1.36.08-1.7.55-1.3-.46-1.36,2-3.24,1.11-1-.5.41-1.55-.91-2C59.12,118.93,58.64,119.37,59.13,119.28Zm14,.34c0-.32,1,.67,1.11.87a2.08,2.08,0,0,0,2.43-.18c.53-.25.31-.85.91-1s1.56.19,2.28-.05c.38-.08.94-.58.41-.73-.6,1.17-2.88-.28-3.46,1.09-.14.7-1.64,1.45-2.37.61C74.41,119.91,72.87,118.93,73.17,119.62Zm-26.08-.28c.5-.15.29-.63-.17-.42-.45.41-.9,1.13-.33,1.59,1.13.65,1.36-.32,2.07-.64s1.49.09,2.24-.07c1.18,0,1.81-1.63.48-.44-1.15.49-2.73-.17-3.59.71-.08.43-.85.44-1.1.07.09-.1.2-.18,0-.19,0-.27.21-.24.38-.4S47.18,119.48,47.09,119.34Zm31.05,0c0-.07-.1,0-.17,0S78.08,119.29,78.14,119.3Zm-31.21.48c-.06,0,0,.06,0,.1S47,119.83,46.93,119.78Z"/><path class="cls-3" d="M43.78,125.3a5,5,0,0,1,1.58-.71c.46-.14.61.37.85.55a7.58,7.58,0,0,0-1.45,1.13c-1.08,1.11,1.25,2.22,2.78,2.23,1.9.12,3.66-.57,5.53-.62,2.56,0,5,.72,7.58.28,3.37-.88,6.95-.64,10.43-.55,1.07-.17,2.4-.3,2.71-1.14.48-.57,1.88.07,2.67,0,3.07.32,5.74,1.6,9,1.1,2.77-.15,5.24-1.21,8-1.4,1.73.08,3.42.48,5.15.12a5.63,5.63,0,0,0,2.21-1c2.44-.87,5.45-.64,8-1.31.6-.1,1-.35,1-.78.77-.81,2.9-.4,4.18-.58,1.33,0,2.31-.85,1.73-1.7.65-.11,1.18-.61,1.85-.52.43.11,1-.14,1.4,0,1.82,1.18,0,2.8-1.91,3.15-3.8,1-7.35,2.26-11.13,3.24-10.89,1.77-22.26,1.51-33.39,2-5.41.44-10.84,0-16.24.52-3.4.32-6.82.91-10.27.64C41.67,129.77,40.29,127.1,43.78,125.3Z"/><path class="cls-3" d="M106.58,121a25.47,25.47,0,0,0,8.71.06c.54,1-.82,1.45-2.1,1.35-6,0-1.9,1.36-6.46,1.69-9.54.59-4.65,2.77-13.51,1.82-4.35.56-9,2.44-13.4.9A29.46,29.46,0,0,0,74.6,126c-1.89-.23-.51,1.84-5.88,1.23-3.37-.29-6.56.42-9.83.8-1.81,0-3.58-.45-5.4-.45-2.72,0-6.08,1.6-8.24-.21-.26-.29-.6-.59-.21-1s.63-.78,1.16-.72c.68-.58,1.58.42,2.48.45a40.87,40.87,0,0,0,9.08.79c4.17-.11,9.38-.28,12-2.79a20.93,20.93,0,0,0,3.78,1.24c4.36.31,11.23,1.53,14.23-1.35a.61.61,0,0,1,1-.25C94.7,125.52,102.64,124.37,106.58,121Z"/><path class="cls-3" d="M46.2,124.06c-.59-1.87,3.08-1.62,4.77-2.34,2.26-1.3,3.93-1.61,5.93.13,2.24,1,6.4,1.76,8.42.23.71-.67,1.61-1.63,2.8-.79,2.8,1.06,1.45,3.61-1.26,4.14C63.6,127,46.61,127.49,46.2,124.06Zm4.49,0c.48-.39.25-.72.5-1.24.34-.85-1.72.16-2.21.54-.76.57.49,1.22,1.27.89C50.36,124.15,51.1,124.26,50.69,124.09Zm3.12.35c-.16.72,1.42,1.08,1.76.35a1.27,1.27,0,0,0-.89-1.61A1.86,1.86,0,0,0,53.81,124.44Zm10.69-.74c2,1.57,3.82-.66,1.7-.5-.57-.16-.94.25-1.46.2C64.56,123.36,64.24,123.78,64.5,123.7Zm-4.22-.06c-.21.15-.55.17-.4.42-.05.28-.34.55-.45.83-.45.8,1.74.86,1.5,0,0-.32-.55-.6-.27-.91a1.17,1.17,0,0,1-.31,0C60.27,123.9,60.62,123.78,60.28,123.64Z"/><path class="cls-3" d="M84.26,120.36c3.18.8,5.36,3.23,1.47,4.58-3.88,1-8,.64-12,.09a19.72,19.72,0,0,1-3.85-1.12,1.91,1.91,0,0,0,0-1.62c-.07-.85-3.12-1.6-.86-1.4s3.72,1.6,6,1.69C81.14,123,77.7,119.79,84.26,120.36Zm-.4,1.37c-.45.17-2.21.16-2.06.54-.07.41,1.11.55,1.59.53C84.26,122.81,85.1,121.83,83.86,121.73Zm-4.81,2.86c0-.58-.67-1-1.19-1.31-.58.18.14.69-.18,1C77.45,124.91,79.1,125.43,79.05,124.59Zm-5.61-1.67c-.52-.28-.9.69-1.13.94C72.12,124.83,74.79,124.66,73.44,122.92Z"/><path class="cls-3" d="M88.24,123.44c.42-1.18-1.13-2.15-2.29-2.9,3.21.73,6.53,1.94,10,1.33,1.54-.23,2.93-.87,2.35-2,.38-.74,2.18-.76,3.19-1,2.13-.4,3.75.11,4.59,1.49-.46,1.85-3.55,2.57-5.74,3.31A26.91,26.91,0,0,1,88.24,123.44Zm7.45-.89c.31.22.8.37.53.71-.35.77,1.86.78,1.55,0A2.2,2.2,0,0,0,95.69,122.55Zm6.63-2.4c.17-.11.57.08.7-.05s.92-.44.61-.72C102.81,118.72,100.28,120.15,102.32,120.15Zm-10.12,2.3c-.75-.17-.57.77-.65,1.1,0,.57,1.36.42,1.17-.11C92.59,123.09,92.15,122.82,92.2,122.45Zm9.4-.7c-.1-.68-1.47-.4-2-.19C99.45,122,101.61,122.56,101.6,121.75Z"/><path class="cls-3" d="M106.58,121c-.22-.06.08-.12.18-.08S106.67,121,106.58,121Z"/><path class="cls-3" d="M114.76,118.58c.69-.14,1.12,0,1.36.47A1.68,1.68,0,0,1,114.76,118.58Z"/><path class="cls-3" d="M110,119.9l.94.41A1.17,1.17,0,0,1,110,119.9Z"/><path class="cls-4" d="M105.32,113.67c-.26,0-.29.29-.6.23s-1.32.18-1.47.48c-1.26.22-2.93.48-4.39.6a191.53,191.53,0,0,1-21.28.9c3.45-.63,7.83-.13,11.58-.43,6-.42,12.41-.41,17.69-2.62.42-.22.34-.14.58.08C106.82,113.1,106,113.41,105.32,113.67Z"/><path class="cls-4" d="M59.05,111.43c.77-.35,2.86.33,3.74.64.32.32,2.06,1.08,1.73,1.34A10.67,10.67,0,0,0,59.05,111.43Z"/><path class="cls-4" d="M95.76,109.1c1-.34,5,1.06,4.68,2A10,10,0,0,0,95.76,109.1Z"/><path class="cls-4" d="M79.64,109.58c1.65-.25,4.46.79,4.62,2.06C82.72,110.34,82.27,110,79.64,109.58Z"/><path class="cls-4" d="M108.21,110.37c.73-.58,3.14.85,2.76,1.44C110,111.33,110,110.58,108.21,110.37Z"/><path class="cls-4" d="M94.58,119.84c.11-.46-.39-1.17-1-1.41.88-.43,1.34.89,1.46,1.31-.45,1.24-3.1-.7-4,0-.79,1-2.38-.25-3.51-.3-.34-.18-2-1.19-1.93-.59-.76.09-.69-.46,0-.47.91-.24,2.61,1.14,3.83,1.28,1.56.86,1.51-1.46,2.9-.19A11.8,11.8,0,0,0,94.58,119.84Z"/><path class="cls-4" d="M104.89,117.45c-1.23,0,.61-.5,1.12-.41,1.61.37,3.21,1.38,3.06-.63,0-.18.18-.31.41-.33.91-.25,1.6-.74,2.54-1,0-.26-.4-.31-.52-.5a.33.33,0,0,1,.49-.09c1.45.89-.82,1-1.53,1.51.56.29-1.09.15-1,.6.26.81-.66,1.59-1.9,1.21A3.52,3.52,0,0,0,104.89,117.45Z"/><path class="cls-4" d="M59.13,119.28c-.49.09,0-.35.32-.09,1.32.48-.06,1.52.9,2,1.89.9,1.94-1.57,3.25-1.11.34-.47,1.7.15,1.7-.56,0-.26-.1-.36-.19-.56.7-.36.57.45.54.72-.16.75-1.7.38-2.42.59-.66.49-.91,1.31-2.08,1.37-.72.07-1.6-.27-1.59-.87S59.85,119.7,59.13,119.28Z"/><path class="cls-4" d="M73.17,119.62c-.3-.69,1.24.29,1.31.56.73.84,2.23.09,2.37-.61.58-1.37,2.86.09,3.46-1.09.53.15,0,.65-.41.73-.72.24-1.58-.29-2.28.05s-.38.8-.91,1a2.08,2.08,0,0,1-2.43.18C74.18,120.3,73.18,119.29,73.17,119.62Z"/><path class="cls-4" d="M47.09,119.34c.09.14.1.14-.05.2s-.41.14-.38.41c.23,0,.11.09,0,.19.25.37,1,.36,1.1-.07.86-.89,2.44-.22,3.59-.71,1.33-1.19.7.43-.48.43-.75.17-1.51-.16-2.24.08s-.95,1.28-2.07.64c-.57-.47-.12-1.18.33-1.59C47.38,118.71,47.59,119.19,47.09,119.34Z"/><path class="cls-4" d="M50.69,124.09c.41.17-.33.06-.44.19-.77.33-2-.31-1.27-.89.49-.38,2.55-1.38,2.21-.53C50.94,123.37,51.17,123.7,50.69,124.09Zm-.16-1.33c-.13.46-1.75.64-1.2,1.21A.88.88,0,0,0,50.53,122.76Z"/><path class="cls-4" d="M53.81,124.44a1.86,1.86,0,0,1,.87-1.26,1.26,1.26,0,0,1,.88,1.61C55.23,125.52,53.65,125.16,53.81,124.44Zm.86-.85a.69.69,0,0,0-.4.62C54.21,125.72,56.32,124.52,54.67,123.59Z"/><path class="cls-4" d="M64.5,123.7c-.27.08.06-.34.24-.3.52,0,.89-.36,1.46-.2C68.32,123,66.47,125.27,64.5,123.7Zm.46,0c.58.18,1.43.55,1.71-.07C66.69,123.14,65.38,123.57,65,123.7Z"/><path class="cls-4" d="M60.28,123.64c.34.14,0,.26.08.39a1.08,1.08,0,0,0,.3,0c-.28.31.3.59.27.91.25.83-2,.78-1.5,0,.11-.28.41-.55.45-.83C59.73,123.81,60.07,123.79,60.28,123.64Zm-.15.8c-.09.24-.42.48-.32.72C60.68,125.55,60.71,124.72,60.13,124.44Z"/><path class="cls-4" d="M83.86,121.73c1.24.1.4,1.08-.47,1.07-.48,0-1.66-.12-1.59-.53C81.64,121.89,83.42,121.9,83.86,121.73Zm-1.71.63c1.43.63,3.17-.81.74-.16C82.6,122.37,82.65,122.19,82.15,122.36Z"/><path class="cls-4" d="M79.05,124.59c0,.84-1.6.32-1.37-.29.32-.34-.4-.84.18-1C78.38,123.62,79.09,124,79.05,124.59Zm-.9-.66c-.09.35-.26.79.46.84C78.85,124.45,78.62,124,78.15,123.93Z"/><path class="cls-4" d="M73.44,122.92c1.35,1.74-1.32,1.91-1.13.94C72.54,123.6,72.92,122.65,73.44,122.92Zm-.78,1.13c.85.36,1.11-.38.47-.69A.92.92,0,0,0,72.66,124.05Z"/><path class="cls-4" d="M95.69,122.55a2.2,2.2,0,0,1,2.08.73c.31.76-1.91.75-1.55,0C96.49,122.92,96,122.77,95.69,122.55Zm1,.38c-.33.4.17.94.68.48C97.43,123.19,97,123,96.7,122.93Z"/><path class="cls-4" d="M102.32,120.15c-2,0,.49-1.43,1.31-.77.31.28-.41.51-.61.72S102.49,120,102.32,120.15Zm-.13-.33a.81.81,0,0,0,1-.3C102.61,119.46,102.3,119.55,102.19,119.82Z"/><path class="cls-4" d="M92.2,122.45c0,.37.39.64.52,1,.19.53-1.12.68-1.17.11C91.63,123.22,91.45,122.28,92.2,122.45Zm-.19.61c0,.19-.26.53.08.56S92.24,123.22,92,123.06Z"/><path class="cls-4" d="M101.6,121.75c0,.81-2.15.23-2-.19C100.13,121.35,101.5,121.07,101.6,121.75Zm-1.31.08c.38,0,.85.22,1-.09C101.14,121.47,100.44,121.58,100.29,121.83Z"/><path class="cls-3" d="M50.53,122.76a.88.88,0,0,1-1.2,1.21C48.78,123.4,50.4,123.22,50.53,122.76Z"/><path class="cls-3" d="M54.67,123.59c1.65.93-.46,2.13-.4.62A.69.69,0,0,1,54.67,123.59Z"/><path class="cls-3" d="M65,123.7c.42-.13,1.73-.56,1.71-.07C66.39,124.25,65.54,123.88,65,123.7Z"/><path class="cls-3" d="M60.13,124.44c.58.28.55,1.11-.32.72C59.71,124.93,60,124.68,60.13,124.44Z"/><path class="cls-3" d="M82.15,122.36c.49-.17.44,0,.74-.16C85.32,121.55,83.58,123,82.15,122.36Z"/><path class="cls-3" d="M78.15,123.93c.48.1.7.52.46.84C77.88,124.72,78.05,124.28,78.15,123.93Z"/><path class="cls-3" d="M72.66,124.05a.92.92,0,0,1,.47-.69C73.77,123.67,73.51,124.41,72.66,124.05Z"/><path class="cls-3" d="M96.7,122.93c.25.08.73.26.68.48C96.87,123.87,96.37,123.33,96.7,122.93Z"/><path class="cls-3" d="M102.19,119.82c.11-.27.42-.36,1-.3A.81.81,0,0,1,102.19,119.82Zm.24-.11c.06.07.21-.08.1-.1Z"/><path class="cls-3" d="M92,123.06c.23.16.49.51.08.56S92,123.25,92,123.06Z"/><path class="cls-3" d="M100.29,121.83c.15-.25.85-.36,1-.09C101.14,122.05,100.67,121.85,100.29,121.83Z"/><path class="cls-4" d="M102.43,119.71s.08-.13.16-.08S102.51,119.78,102.43,119.71Z"/><path d="M91,114.23s0-.13.14-.13c-.31-.19-.2-.53-.22-.83s.3-.24-.07-.61a27.12,27.12,0,0,0-.44-4.91c-.32-.44.23-1.1-.17-1.3.36-.14,0-1.17-.12-1.34.31-.13-.1-.28,0-.47s-.12-.34,0-.53-.08-.37-.1-.55-.21-.35,0-.33.07-.18,0-.16c.15-.11.1-.1-.06-.2,0-.07.06-.47,0-.42.07-.09.22-.49,0-.46s.34-.26,0-.42c.14-.18,0-.08-.11-.17.24-.08.23-.07,0-.14-.35-.7.33-.06,0-.89-.53.17-1-.29-1.46-.46-.07-.35.18-.77.24-1.13.39-1,.11-1.68,1.46-1.53A13.2,13.2,0,0,1,92,93c2-2.51,5.63-2.84,8.66-3.07,2.32.16,2.06.58,3-1.66.69-1.92,2.1-4.12,2.29-6a19.36,19.36,0,0,0,2.09-4.4c.39-.27,1,.27,1.35.4s.76.1,1,.38.6.53.26.85c-.28.84-.55,1.71-.92,2.56-1.14,2.88-2.54,5.85-3.48,8.67-.15.57,1.6.71,2.18,1.28s1.49,1.19,2.14,1.91c.61.88,1.5,1.37,1.84,2.38A10.4,10.4,0,0,1,113,97.5c.15.33,0,.1-.12.28-.32-.06-.38-.58-.54-.84.21,0,.06-.16-.06-.31-.39-.29-1.77-2.84-3-3.39a6.27,6.27,0,0,0-2.94-1.85c-.6-.29-.55.87-.81,1.26.1,0,.12.07,0,.16A.32.32,0,0,1,106,93c.1,1.1-.83.69-1.2,1.14-1,0-2.37.78-3.55.72-1.35.2-1.83-.73-.67-1.5-.43-.16.57-.38.94-.4.12-.8,1.93-2.75.54-2.7a9.21,9.21,0,0,0-3,0c-2.66.29-5.66.85-7.22,3.31-2.15,3.9-2.39,3.64,2,4.2a76.07,76.07,0,0,0,14.23.78,25.48,25.48,0,0,0,5.15-.9c.46-.29.83,1.35,1.53,1.73.1.46-.78.28-.82.94-.26,0-.18-.27-.55,0,0,2.12-.61,4.21-.49,6.34,0,.87-.23.79-.2,0a12.25,12.25,0,0,0-.38,3.08c.33,2.11-.68,6.84-.84,10-.23,2.54-.14,5.14-.56,7.69-.08.88,0,1.59-1,1.89a19,19,0,0,1-8.84,1c-2.54-.17-5.24-.13-7.52-1.38-.39-.25-1.11-.62-1.09-1.12.18-.37-.24-.81,0-1.14-.42-.76-.32-2.26-.53-3.28,0-.25.14.05.2,0a8.58,8.58,0,0,1-.15-1.31c-.06-2-.84-4-.67-5.9-.15,0,0-.21-.06-.29s0-.37-.1-.56.16-.34,0-.24C90.86,114.82,91.37,114.3,91,114.23Zm22-13.47c.19.32.41-.26.12-.33,0,.28-.12.46-.16.08-.74.42-2.94.41-3,.72s-.22.27-.4.06a55.94,55.94,0,0,1-11.5,0c-2.34-.25-4.63-.4-6.91-.79-.35,0-.86-.32-1.14-.07.12,1,.22,1.92.35,2.89.35.88,1.19,8.91.47,4.59-.13,0,.3,4.35.3,2.89.06-.06.11,0,.12.05-.29,2,.34,4.24.43,6.33.18,1.54.51,3.7.65,5.79.1,1.24.66,2.88.36,4,.2,0,.34.33.06.17,0,.11-.08.21.05.3s-.11.12-.18.14c.52,3.08,16.77,3.43,17.9.78.5-5.37.63-10.8,1.19-16.16,0-.37,0-1.81.21-.82.19-1.27,0-2.67.3-4C112.59,104.86,113,101,113,100.76Zm-7.11-14.39c.07.15-.4,0-.6.24-.58.23-1,.41-1.15,1.07-.19,1-1.93,3-.2,2,.72-.24,1.46-.43,2.18-.71.21,0,.44.27.47-.06C107.12,87,109.34,84.75,105.91,86.37Zm-4.37,7.29c-.63.92-.53,1.1.57.81a8.24,8.24,0,0,0,2.73-.84,18,18,0,0,0,.9-2.28c-.9-.63-2.35.46-3.26.75.08.16-.1.08-.2.08,0,.21.12.53-.21.56s-.17.24-.16.36S101.73,93.62,101.54,93.66Zm8.11-12.16c-1.14.28-2.32.82-3.38,1-.32.71-.49,1.47-.85,2.16,0,.07,0,.13.09.11,1.1-.31,2-.9,3.24-1.2A7.29,7.29,0,0,0,109.65,81.5Zm-8.42,19.75c-.09-.34-.18-2.79.22-2.12.1,1-.47,2.57,1.08,2.2-.26-2.4.49-2.62-2.28-2.43C100.26,99.88,99.72,101.47,101.23,101.25Zm3.84,0c-.7-.24-.24-1.57-.45-2.19.24-.23-1.11-.31-.93,0,.09.73-.14,1.76.36,2.34,2.39.21,1.64-.57,1.72-2.46C104.26,98.56,105.17,100.31,105.07,101.26Zm1.86-20.12c.56-.42,4.07-.89,3.23-1.68a2.69,2.69,0,0,1-1.86-1c-.17-.11-.09-.34-.25,0C107.81,79.39,107.25,80.2,106.93,81.14Zm5,19.37c-.28-.64-.28-1.46-.52-2.05-.26.12-1-.07-.83.39a5.42,5.42,0,0,0,.48,1.71c-.69.31-.66-1.67-.76-1.8s-.76,0-1.07.07c.34.47.26,1.42.57,2A10.9,10.9,0,0,0,111.92,100.51ZM93.26,98c.32,1.86-1,2.69,1.47,2.68C94.18,99.54,95.33,97.73,93.26,98Zm2.88,2.81c-.45-1.29.71-2.75-1.34-2.57a11.71,11.71,0,0,1,0,2.44ZM90.5,98.73a1.76,1.76,0,0,1,0-1.2,7.7,7.7,0,0,1-1.35-.12c0,.21.2.4-.1.38,0,.22.17,0,.25.09a7.09,7.09,0,0,1,.14,1.53c-.3.66.93.91,1,.55S90.32,99.07,90.5,98.73Zm8.1,2.35c-.42-1.13.8-2.64-.77-2.49-.68-.27-.23.76-.37,1.18C97.39,100.74,97.51,101.19,98.6,101.08Zm-6.72-2.72a6,6,0,0,1,0,2c.34.09.68.11,1,.18.27-.51,0-1.32.14-1.93s-.37-.63-.93-.74c-.16,0-.21.12,0,.16S92,98.36,91.88,98.36Zm8.1,2.77c-.19-1.15.48-2.69-1.12-2.36C99,99.86,98.2,101.45,100,101.13ZM107,99c.14,1.1-.45,2.7,1.26,2.19C107.86,100.1,108.63,98.51,107,99Zm-15.34,1.37a4.33,4.33,0,0,1,.16-1.75c-.41.14.59-1-1-1a19.59,19.59,0,0,0,0,2C90.49,100.35,91.08,100.23,91.63,100.32Zm5.67.64a9.09,9.09,0,0,1,0-2.33c0-.25-.56-.11-.77-.19-.5.19-.09,1.19-.16,1.66C96.3,100.92,96.5,100.94,97.3,101Zm10.89-2.08c.16.66.15,1.33.28,2a.23.23,0,0,0,.25.21c1.11,0,.55-.72.47-1.46C109.07,98.53,109.14,98.88,108.19,98.88Zm3.55-.51c.12.91.12,2.61,1.4,1.82C112.51,99.49,113,97.71,111.74,98.37Zm-8.13,3c-.47-.88.45-2.8-1-2.47C102.9,99.74,102.23,101.67,103.61,101.36Zm3.27-.11c-.41-.62.13-1.89-.32-2.31-.88-.25-.4.81-.52,1.36S106.09,101.41,106.88,101.25ZM113.33,98c-.82,0-.5.41-.35,1,.14.28.19,1.27.64,1A2.06,2.06,0,0,0,113.33,98ZM89,98c-.22.72-1,1.88.11,2.06A9.43,9.43,0,0,0,89,98Zm11.85-4.57c-.15,0,0,.42-.13.13a.76.76,0,0,0-.41.91c.34.42.57-.2.71-.48C101.32,93.41,101.42,93.23,100.88,93.4Zm7.61-15.2c0,.7,2.75,1.29,1.59.71C109.52,79,109.05,78.31,108.49,78.2ZM105.73,93c-.44,0-.43.39-.58.74C105.49,93.66,105.89,93.35,105.73,93ZM114,99.1v.57C114.54,99.54,114.3,99.38,114,99.1ZM106,90.84c.14-.29,0-.3-.22-.21C105.67,90.86,105.86,90.78,106,90.84ZM112,112.29c-.15,0,.11-.16,0-.23C111.76,112.21,112.05,113.06,112,112.29Zm-6.77-27.14c.1-.07.25-.06.26-.16C105.33,84.91,105.33,85,105.26,85.15Zm5.36,43.52c-.05-.07-.3.18-.26.23A.53.53,0,0,0,110.62,128.67ZM91.09,113.86c.15,0,0-.16,0-.25S91.09,113.79,91.09,113.86ZM108.54,84l-.22.06C108.43,84.2,108.44,84.1,108.54,84Z"/><path class="cls-3" d="M113,100.76c-.06.26-.4,4.09-.73,6.61-.26,1.31-.11,2.71-.3,4-.2-1-.16.45-.21.82-.56,5.36-.69,10.79-1.19,16.16-1.12,2.65-17.38,2.3-17.9-.78.32,0,.06-.22.13-.44.29.14.13-.15-.06-.17.31-1.1-.27-2.69-.36-4-.14-2.1-.47-4.25-.65-5.79-.09-2.09-.72-4.36-.43-6.33,0-.08-.07-.11-.12-.05,0,1.45-.39-2.86-.3-2.89.61,3.8,0-3.06-.42-4.14.11-.64-1-3.94.12-3.39,2.34.49,4.65.57,7,.88a56.69,56.69,0,0,0,10.34.16c.53,0,1.17-.33,1.65-.15.18.21.3.19.4-.06s2.2-.29,3-.72C113,100.6,113,100.69,113,100.76Zm-3.92,3c-.82,2.68-.29,5.62-.42,8.42-.17,3.47-.76,7.18-.46,10.55.49-1.55.16-3.59.32-5.3a60.4,60.4,0,0,0,.32-9.79c0-.88.16-2,.19-2.7.16-.26.43-.71.25-1C109.49,103.61,108.87,103.72,109.1,103.79Zm-12.5,23c1.33.71,8.33.73,8.81-.37a22.39,22.39,0,0,1-6.88.53c-.94.1-2.39-1.06-3-.69C95.57,126.79,96.5,126.59,96.6,126.83Zm-5.53-17.48c.06.33-.07,1,.19,1.14C91.23,110.17,91.4,109.39,91.07,109.35Zm.15,1.36c0-.08.12-.14,0-.17S91.13,110.61,91.22,110.71Z"/><path class="cls-3" d="M105.91,86.37c3.43-1.62,1.21.66.7,2.57,0,.33-.26.08-.47.06-.72.28-1.46.47-2.18.71-1.73,1,0-1.07.2-2,.16-.66.57-.84,1.15-1.07C105.51,86.4,106,86.53,105.91,86.37Z"/><path class="cls-3" d="M101.54,93.66c.19,0,.24-.34.37-.56s-.14-.31.16-.36.17-.35.21-.56c.1,0,.28.08.2-.08.91-.29,2.36-1.38,3.26-.75a18,18,0,0,1-.9,2.28,8.24,8.24,0,0,1-2.73.84C101,94.76,100.91,94.58,101.54,93.66Z"/><path class="cls-3" d="M109.65,81.5a7.29,7.29,0,0,1-.9,2.12c-1.22.3-2.14.89-3.24,1.2-.07,0-.13,0-.09-.11.36-.69.53-1.45.85-2.16C107.33,82.32,108.51,81.78,109.65,81.5Z"/><path class="cls-3" d="M101.23,101.25c-1.51.22-1-1.37-1-2.35,2.77-.19,2,0,2.28,2.43-1.55.37-1-1.19-1.08-2.2C101.05,98.45,101.14,100.91,101.23,101.25Z"/><path class="cls-3" d="M105.07,101.26c.1-1-.81-2.7.7-2.34-.08,1.89.67,2.67-1.72,2.45-.5-.57-.27-1.6-.36-2.33-.18-.28,1.17-.19.93,0C104.83,99.69,104.37,101,105.07,101.26Z"/><path class="cls-3" d="M111.92,100.51a10.9,10.9,0,0,1-2.13.36c-.31-.62-.23-1.57-.57-2,.31,0,.85-.31,1.07-.07s.07,2.11.76,1.8a5.17,5.17,0,0,1-.48-1.71c-.16-.46.57-.27.83-.39C111.64,99.05,111.64,99.87,111.92,100.51Z"/><path class="cls-3" d="M93.26,98c2.07-.29.92,1.51,1.47,2.68C92.28,100.72,93.58,99.89,93.26,98Z"/><path class="cls-3" d="M96.14,100.84l-1.33-.13a11.71,11.71,0,0,0,0-2.44C96.85,98.09,95.69,99.55,96.14,100.84Z"/><path class="cls-3" d="M90.5,98.73c-.18.34.06.82,0,1.23s-1.32.11-1-.55a7.09,7.09,0,0,0-.14-1.53c-.08-.06-.22.13-.25-.09.3,0,.14-.17.1-.38a7.7,7.7,0,0,0,1.35.12A1.76,1.76,0,0,0,90.5,98.73Z"/><path class="cls-3" d="M98.6,101.08c-1.09.11-1.21-.34-1.14-1.31.14-.42-.31-1.45.37-1.18C99.4,98.44,98.18,100,98.6,101.08Z"/><path class="cls-3" d="M91.88,98.36c.07,0,.21-.35.16-.35s-.13-.18,0-.16c.56.11,1.15,0,.93.74s.13,1.42-.14,1.93c-.34-.07-.68-.09-1-.18A6,6,0,0,0,91.88,98.36Z"/><path class="cls-3" d="M100,101.13c-1.78.32-.94-1.31-1.12-2.41C100.53,98.57,99.76,100,100,101.13Z"/><path class="cls-3" d="M107,99c1.66-.44.89,1.15,1.26,2.2C106.52,101.65,107.11,100.05,107,99Z"/><path class="cls-3" d="M91.63,100.32c-.55-.1-1.14,0-.85-.7a19.59,19.59,0,0,1,0-2c1.57-.07.55,1.12,1,1A4.33,4.33,0,0,0,91.63,100.32Z"/><path class="cls-3" d="M97.3,101c-.8,0-1,0-1-.86.07-.47-.34-1.47.16-1.66.21.08.74-.06.77.19A9.09,9.09,0,0,0,97.3,101Z"/><path class="cls-3" d="M108.19,98.88c1,0,.88-.35,1,.74.08.74.64,1.48-.47,1.46a.23.23,0,0,1-.25-.21C108.34,100.21,108.35,99.54,108.19,98.88Z"/><path class="cls-3" d="M111.74,98.37c1.27-.66.77,1.12,1.4,1.82C111.86,101,111.86,99.28,111.74,98.37Z"/><path class="cls-3" d="M103.61,101.36c-1.38.31-.71-1.62-1-2.47C104.06,98.56,103.14,100.48,103.61,101.36Z"/><path class="cls-3" d="M106.88,101.25c-.79.16-.83-.26-.84-1s-.36-1.61.52-1.35C107,99.36,106.47,100.63,106.88,101.25Z"/><path class="cls-3" d="M113.33,98a2.06,2.06,0,0,1,.29,2c-.45.25-.5-.74-.64-1C112.83,98.44,112.51,98,113.33,98Z"/><path class="cls-3" d="M100.88,93.4c.54-.17.45,0,.17.56-.14.28-.37.9-.71.48a.76.76,0,0,1,.41-.91C100.88,93.82,100.73,93.4,100.88,93.4Z"/><path class="cls-3" d="M105.73,93c.16.4-.25.71-.58.74C105.3,93.34,105.29,93,105.73,93Z"/><path class="cls-3" d="M114,99.1c.28.28.52.44,0,.57Z"/><path class="cls-3" d="M113,100.76c.14-.06.06-.21.12-.33C113.42,100.51,113.22,101.07,113,100.76Z"/><path class="cls-3" d="M106,90.84c-.1-.06-.29,0-.22-.21C106,90.54,106.1,90.55,106,90.84Z"/><path class="cls-3" d="M105.26,85.15c.07-.17.07-.24.26-.16C105.51,85.09,105.36,85.08,105.26,85.15Z"/><path class="cls-3" d="M110.62,128.67a.53.53,0,0,1-.26.23C110.32,128.85,110.57,128.6,110.62,128.67Z"/><path class="cls-3" d="M91.09,113.86c0-.07-.09-.21,0-.25S91.24,113.85,91.09,113.86Z"/><path class="cls-3" d="M108.54,84c-.1.13-.11.23-.22.06Z"/><path d="M109.1,103.79c-.23-.07.39-.19.2.19.18.27-.09.74-.25,1,0,.67-.19,1.82-.19,2.7a60.4,60.4,0,0,1-.32,9.79c-.16,1.71.17,3.75-.32,5.3-.3-3.37.29-7.08.46-10.55C108.81,109.42,108.28,106.47,109.1,103.79Z"/><path d="M96.6,126.83c-.1-.24-1,0-1-.53.59-.37,2,.79,3,.69a22.39,22.39,0,0,0,6.88-.53C104.93,127.56,97.94,127.54,96.6,126.83Z"/></g></g></svg>