<svg xmlns="http://www.w3.org/2000/svg" xmlns:xlink="http://www.w3.org/1999/xlink" viewBox="0 0 692 622"><defs><style>.cls-1{fill:#fff;}.cls-2{fill:#e69e8c;}.cls-3{fill:#c8442f;}.cls-4{fill:#fcfbca;}.cls-5{fill:#f3d6c6;}.cls-6{fill:#ffd994;}.cls-7{fill:red;}.cls-8{fill:#39b54a;}</style><symbol id="ÆG" data-name="ÆG" viewBox="0 0 692 622"><ellipse cx="346" cy="311" rx="346" ry="311"/><ellipse class="cls-1" cx="346.92" cy="309.46" rx="339" ry="304"/><path class="cls-2" d="M474.92,431.46"/><path class="cls-3" d="M375.92,464.46"/><path class="cls-2" d="M350.92,524.46"/><path class="cls-2" d="M361.92,518.46"/><path class="cls-3" d="M540.92,422.46"/><path class="cls-2" d="M543.92,421.46"/><path class="cls-3" d="M439.92,483.46"/><path class="cls-2" d="M351.92,544.46"/></symbol></defs><g id="Lag_2" data-name="Lag 2"><g id="Lag_1-2" data-name="Lag 1"><use width="692" height="622" xlink:href="#ÆG"/><polygon class="cls-4" points="542 229.71 171 380 171 380 341 110 542 229.71"/><polygon class="cls-5" points="542 229.71 171 380 174 489 526 337 542 229.71"/><polygon class="cls-6" points="172 416 536 271 541.79 230.1 171 380 172 416"/><polygon class="cls-6" points="174 489 526 337 531 304 173 455 174 489"/><path class="cls-4" d="M354.46,110.16a3.33,3.33,0,0,1-1.5,2.22c.26-.18.53-.34.8-.49a5.77,5.77,0,0,0,1.11-.56c-.7.64-1.09.44-.06.18-.81.08-.87.11-.18.07a4.9,4.9,0,0,1-1.6-.41L350.88,109c-.16-.25-.27-1.56-.41-1.65.1.06,0,1,0,1.15,0,.65-.12,1.28-.14,1.93a8.61,8.61,0,0,0,0,.88c.14,1.48,0-1,.35-1-.38,0-1.29,2-1.46,2.35-1.4,2.92-.79,6.49,2.16,8.21,2.63,1.54,6.79.78,8.21-2.15.72-1.5,1.82-2.68,2.33-4.3a17.46,17.46,0,0,0,.43-4.38c.19-3.5.08-7.16-3.26-9.27-5.5-3.47-14,.51-16.21,6.16-1.13,2.93,1.25,6.71,4.19,7.38,3.44.78,6.17-1,7.39-4.19Z"/><path class="cls-4" d="M355.63,110v-.48a6.76,6.76,0,0,0-1.76-4.25,4.68,4.68,0,0,0-1.93-1.24,4.6,4.6,0,0,0-2.31-.51l-1.6.21a6.07,6.07,0,0,0-2.65,1.54l-.94,1.22a5.93,5.93,0,0,0-.81,3V110a4.5,4.5,0,0,0,.51,2.31,6.18,6.18,0,0,0,5.49,3.69l1.59-.22a6,6,0,0,0,2.65-1.54l.94-1.22a6,6,0,0,0,.82-3Z"/><path class="cls-4" d="M354,108.88c-.34-1.93,1-5.89,2.8-6.28,2.73-.59,3.75,2.51,4,4.49a63.45,63.45,0,0,1,.55,10.67,22.3,22.3,0,0,1-.42,3c-.09.51-.2,1-.34,1.52-.62,1.4,0,1.31,1.85-.25l4.25,1.76c1.59,1.67.18.79.3-.7s0-3,.13-4.52c.47-7.71-11.53-7.69-12,0-.25,4-.44,9,2,12.51s7.28,3.83,10.66,1.4c7.35-5.28,5.6-18.49,4.91-26.07-.83-9-7.43-16.79-17.2-15.7-4.18.46-7.12,3-9.73,6.15-4,4.75-4.43,9.19-3.38,15.18,1.33,7.59,12.89,4.37,11.57-3.19Z"/><path class="cls-4" d="M352.76,111.91a25.8,25.8,0,0,1,1.48-7c.29-.89.58-2.64,1.17-3.35.45-.54.36-.29.06-.1,1.42-.87,4.16-.32,5.77-.31,2.72,0,2.77.43,4.17,3,4.39,8.07,5,16.82-1.39,24.06-5.07,5.78,3.39,14.3,8.49,8.48,5.57-6.35,9.15-14.16,8.21-22.74-.84-7.6-3.38-17.14-9.66-22.19-5.09-4.08-16.2-3.82-21.65-.66-6.48,3.76-8.33,14-8.65,20.8-.37,7.72,11.63,7.7,12,0Z"/><path class="cls-4" d="M380.48,132.94c.06-3.62.15-8.88,2.25-12,1.73-2.59,5-4,7-1.54s4.38,6.14,4.29,9.46c-.1,3.78-1.77,9-3.39,12.37a11.46,11.46,0,0,1-1.19,2.1q-3.56,3.08,4.91,2.65a12,12,0,0,0-.76-2,36.52,36.52,0,0,1-1.15-5.4c-.46-3-.74-6.13-1.11-9.19a24.77,24.77,0,0,1-.3-2.73c.45-3.07-1-3-4.44.34-.18.51.77,3.17-.08,4l7.27-.94c2.68,1.45,1.67,4.92,2.29,1.13,1.24-7.56-10.33-10.81-11.57-3.19-.76,4.63-1.73,9.74,3.22,12.42a6.15,6.15,0,0,0,7.27-.93c4.09-4.1,5.41-12.68,2.62-17.77-2.71-4.94-9.67-8.81-14.83-5.21-5.8,4-3.44,12.38-2.78,18.2a73.5,73.5,0,0,0,2,12.44c1.21,4.14,3.44,8.68,8.33,8.95,5.67.32,9.74-6.48,11.61-11,2.61-6.26,5.25-14.68,3.58-21.45-1.26-5.13-5.64-12.44-9.94-15.54-5.83-4.2-14.23-2-19.42,2.3-6.33,5.26-7.55,14.75-7.67,22.49s11.88,7.73,12,0Z"/><path class="cls-4" d="M406.77,155.4a53,53,0,0,1,1.28-10.91c.71-3.73,1.58-4.44,4.61-6.67,2.46-1.8,2.9-3.26,5.43-1.62,3.25,2.09,3.61,3,3.48,6.73-.08,2.27-3.36,15.09-6.22,9.14-.93-1.94-.37-3.77-.65-5.6,1.58-1.47,1.09-2-1.44-1.52v.52c-.8,1-.83,2.53-1.87,3.61l5.84-1.55q.11,8.4,3.07,4.95c5.71-5.22-2.79-13.69-8.49-8.49-4.82,4.4-5.38,13.22,2.23,15.12a6.08,6.08,0,0,0,5.84-1.55c5-5.19,7.45-13.38,3-19.67-5.63-7.92-14.28-4.9-18.54,2.53-7,12.26,6.08,32.86,20.17,22.82,6.45-4.6,9-13.67,9-21.22,0-3.87-.12-7.52-2.74-10.6a27.15,27.15,0,0,0-8.9-6.76c-7.77-3.65-15.57,1.66-21.07,7.23-3,3.06-3.58,6.26-4.47,10.26a55.67,55.67,0,0,0-1.6,13.25c.06,7.72,12.06,7.74,12,0Z"/><path class="cls-4" d="M435.45,171.18c0-5.29,1.82-8.77,3.51-13.62,1.24-3.53,3-7.72,7.68-8s6.46,6.18,6.79,9.63-.63,7.89-4,9.61c-1.88,1-3.67,1.34-4.69-.65s0-2.7,1.67-3.67c1.32-.77,4.65-.88,1.83-2.05-3.59-1.48-.38-.53-1.21.29-.42.41-1.89,3.58-2.1,3.22a28.57,28.57,0,0,1,4,1.17c.1-.08-.45-1.42-.44-1.63,0-.84-.28-1.91-.33-2.77-.11-2-.29-5.31.57-5.94,6.14-4.54.16-15-6.06-10.36-2.94,2.18-5.07,4-5.9,7.79a32.79,32.79,0,0,0-.61,8.51c.25,4.88,1.12,11.23,5.8,14,6.83,4,14.28-3.61,16.3-9.66,2.09-6.25-.86-15.93-8.65-16.06-8.1-.14-18,7.55-17.45,16,.55,9.06,7.64,15.61,16.62,14.38,18-2.46,22.19-27.95,9.43-39-7.95-6.86-17.53-5.38-25.24,1.21-3.48,3-4.19,7.07-5.72,11.1-2.21,5.81-3.82,10.16-3.8,16.52,0,7.72,12,7.73,12,0Z"/><path class="cls-4" d="M472.41,188.92c-2.85-3-3.76-6.43-4.78-10.34a34.15,34.15,0,0,0-1.19-4.76c.09-1.65,0-1.68-.32-.09a7.15,7.15,0,0,1,2.56-1c3-1,8.67-1.82,11.11.83,1.71,1.85,1.46,5.72,1,7.95a8.51,8.51,0,0,1-1.57,4c-1.5,1.66-3.63,1.21-5.33,2.24q-2.85-.06-.34,1.21a24.43,24.43,0,0,0-1.14-2.36,9.45,9.45,0,0,1-1-3.22c.35-1.28.14-1.34-.63-.19,1.26-1,3.27-.32,1.81-1.55.85.72.61,1.72,1,2.59,1.19,2.37-6.81.56,4,3a5.65,5.65,0,0,0,.8-.82c1.47-1.3.13-1.75-4-1.37,5.92,4.86,14.46-3.58,8.48-8.49-5.79-4.76-12.58-.71-15.91,5-4.76,8.26,4.92,18.08,13.23,13.35,6.2-3.54,6.48-11.94,3.62-17.76-3.56-7.24-11.29-8.63-18.15-4.86-8.39,4.61-6.82,14.56-2.92,21.74,4.39,8.07,14.31,6.73,21.37,2.72,14.11-8,11.26-33.48-5.21-36.34-8.47-1.47-22.9.57-24.38,11.05-.64,4.57,1.18,9.36,2.44,13.69a28.57,28.57,0,0,0,6.91,12.29c5.36,5.58,13.83-2.91,8.49-8.49Z"/><path class="cls-4" d="M499.87,204.71a16.41,16.41,0,0,1-5.49-8c-.33-1-1.5-4.19-1.17-5.24.43-1.34,1.78-1.83,3.21-2.19,1.16-.3,4.95-.92,6.61.89,1.41,1.53,3.49,6.56,2.74,8.51-.95,2.45-4,2.07-5.8,3.49-1.37.12-1.56.38-.57.75.67.63.86.46.56-.5.38-.83.87-3.86-.78-1.75-.7.9-1.08,1.37.72,1.34,2.66-.06-2.67,4.46.86-3.49-2.13,1.61-.65,2.25,4.47,1.9l-.05-1.31c.83-1.72.83-4.54,1-6.43.72-7.68-11.28-7.63-12,0-.6,6.31-2.46,17.27,7.1,17.94,6.07.43,12.21-6.33,10.66-12.33-1.39-5.37-8-8.49-13.14-8.64-7.05-.21-10.69,5-10.86,11.6s3.05,13.56,10.63,13.42c5.66-.11,13.91-3.91,17-8.7,4.1-6.29,1.87-14.26-1.36-20.39-3.79-7.19-9.9-8.81-17.53-8.48-9,.4-16.26,6.87-15.35,16.11a30.88,30.88,0,0,0,12.44,21.86c6.16,4.66,12.15-5.75,6.06-10.36Z"/><path class="cls-4" d="M524.25,211.88c1,.43.61-.93.58-2.27a7.1,7.1,0,0,1,.18-3c.84-2.19,3-2.89,5.14-3.11,2.52-.26,4.68-.09,6.24,1.59s2.67,4.69,3.26,6.73c1.09,3.69-1.95,13.28-7.22,11.26a9.57,9.57,0,0,1-4.25-4.46,16.11,16.11,0,0,1-.72-3.25c-.22-1.23.13-2.49-1-1.42.66-.62,2.21-.43,3-.79.53-.12,1.07-.21,1.61-.29l-2-1.5s.15,3,.19,3.12c.87,4.1,6.07,4.92,6.62,1.21a7.78,7.78,0,0,0-1.37-5.83,7.11,7.11,0,0,0-6.32-2.83,6,6,0,0,0-3.55,1.13q-1.82.94,1.78,0l-1.33-.8c-4-3-10.11-2.59-14,.21-6.23,4.45-.24,14.87,6.06,10.36,2-1.43,3.87,1.2,6,1.81a9.69,9.69,0,0,0,4.54.16c.68-.16,3.68-.82,1.62-.87L525,217.28c-3.2-3-.35-4.21-1.17-2.25a9.25,9.25,0,0,0-.33,2.47,8.44,8.44,0,0,0,.76,3.77,8,8,0,0,0,8.53,4.33c6.35-.92,8.67-7.4,8.37-13.1-.37-7.28-4.42-12.37-12.15-11.38-6.75.86-13.75,3.67-13.93,11.49A23.5,23.5,0,0,0,524.21,232c6,4.76,15.19,4.42,20.39-1.32,5.68-6.27,9.21-13.58,6.63-22.06-2.06-6.77-5.79-14.28-13-16.29-8.49-2.35-18.39-.3-23.18,7.57-3.49,5.75-4.31,19.08,3.17,22.35,7,3.07,13.12-7.27,6.06-10.36Z"/><path class="cls-4" d="M390.73,118.86c1.23,0,1.68.68,2.62,1.51.62.52,1.23,1.06,1.82,1.61,1,1.17,1.15,1.17.52,0,.44,1.88.36,3.15-1.3,3.86-3,1.26-3.64,5.66-2.15,8.2,1.81,3.09,5.22,3.43,8.21,2.16,6.32-2.69,8.38-10.45,6.92-16.72-.81-3.49-3.4-5.76-6-8-3.31-2.87-6.18-4.43-10.65-4.62-7.72-.32-7.71,11.68,0,12Z"/><path class="cls-4" d="M414.63,136.07c.94,0,1.91.07,2.85,0,3.52-.25-.13-.48.92-.11a9.28,9.28,0,0,1,3,1.57c1.47,1.74.84,4.63.08,6.49L433,147.22c1.44-5.06,3.33-10.4,2.27-15.77-1-4.88-5.09-8.17-9.41-10.2-10.69-5-19.81,5-22.79,14.39-2.33,7.39,9.25,10.55,11.57,3.19.67-2.11,1.35-4,3.09-5.36,2-1.61,2.07-1.89,4.25-.7,1.82,1,1.61,1.34,1.44,3.43-.24,2.84-1.23,5.15-2,7.83-2.17,7.63,8.75,10.15,11.58,3.19a18,18,0,0,0-1.84-16.5c-3.94-5.61-10.24-6.63-16.57-6.65-7.72,0-7.73,12,0,12Z"/><path class="cls-4" d="M440.23,143.45c-.06-4.79-.74-10-4-13.75-3.08-3.53-5.72-6.54-10.63-7.06-3.22-.34-6,3-6,6,0,3.52,2.77,5.65,6,6q-2.56-1.33-1.13,0c.32.38.64.76.95,1.15.61.68,1.69,1.4,2.1,2.21.71,1.4.67,3.93.69,5.49.08,7.72,12.08,7.74,12,0Z"/><path class="cls-4" d="M387.39,118.39c3.49,0,6.19-.9,8.38,1.92,2.35,3,1,5.8-.31,9.12-1.16,3,1.28,6.58,4.19,7.38,3.38.93,6.22-1.15,7.38-4.19,2.7-7.06,3-13.45-1.83-19.61-2-2.57-4.23-4.83-7.38-5.92s-7-.7-10.43-.7c-7.73,0-7.74,12,0,12Z"/><path class="cls-4" d="M544.86,240.83c-.1.1,3.07-.46,3.74-.45l-4.24-1.75c2.26,1.89,1.19,7.84.25,10.14-.34.83.11-.05.56-.22-1.16.45-3.32-.48-.91,1.11s.8-.25,1.11-1.82l.27-.92q1.26-2-.63-.12h-3.19q-1.55-1.68-.54,0c3.34,7,13.69.88,10.36-6.06-1.83-3.8-5.44-6.42-9.82-5.51-4.82,1-7.42,6.08-8.17,10.54-.69,4.09-.4,9.41,2.75,12.44s8.42,3,12.45,1.73c8.32-2.64,10.38-15.74,8-23-1.4-4.23-3.91-8.57-8.88-8.6-4,0-8.68,1.17-11.57,4-5.57,5.38,2.93,13.86,8.48,8.49Z"/><path class="cls-4" d="M542.62,272.27a16.36,16.36,0,0,1,1.38-.9c-1.26-.38-1.49-.07-.66.94-.13,1.22.92,2.38.23,3.43a10.85,10.85,0,0,1-2.21,1.14q3.15,1.64,1.79,0a8.81,8.81,0,0,1,.26-2.61c.45-2.85,1.07-6.38,2.49-8.93,1.84-3.3,3.56-5.58,1.25-9.32-4-6.56-14.44-.54-10.36,6.05l.43.7v-6c-3.38,6.47-7.27,14.61-5.81,22.29,1.66,8.78,10.2,12,17.56,7.52s8.39-12.73,4.86-20.09c-4.32-9-12.88-8.08-19.7-2.65-6,4.8,2.5,13.24,8.49,8.48Z"/><path class="cls-4" d="M538.53,292.73l0-.69-.82,3c-2,3.38-2.86,1.11-1.3,1.42.57,0,1.14,0,1.71,0l-1.25-.31c.53,1.54,2,5,1.45,6.26a11.82,11.82,0,0,1-1.44,1.3c-1.53,1.09-2.71.37-.38,1.84,2.75,1.75,1,.4.56-.92a3.63,3.63,0,0,1-.46-1.33q.61-3.39-5.64,1.26c5.81,5,14.33-3.42,8.48-8.48-3.61-3.13-8.79-3.79-12.32,0-2.93,3.11-3,8.21-1.57,12s3.31,7.62,7.59,8.44c4.47.86,9.29-1.54,12.54-4.47a13.71,13.71,0,0,0,4.62-11,25,25,0,0,0-1.57-6.78c-.7-2.27-1-4.37-2.63-6.23-5.33-6-19.27-4.67-19.6,4.73-.27,7.73,11.73,7.72,12,0Z"/><path class="cls-4" d="M536.07,320.83q-3.54,2.78-1.19,1.84c.79-.16,1-.21.48-.16s-.3,0,.71-.06q-2.6-3-1.79-1.8c-.17.13-.43,4-.69,4.56a11.19,11.19,0,0,1-1.48,2.44c.57-.4-.86.07-.86,0-.88,0-.52.41,1.07,1.25l.29,1c.19.11-.91.71.71-.11,6.89-3.48.82-13.84-6.06-10.36-6.44,3.25-9.32,12.42-3.47,17.71,2.93,2.65,7.4,3,11.08,2,4-1,6.54-3.67,8.55-7.07,3.29-5.55,5-15.57-1.18-19.92-5.06-3.56-16.51-1.64-17.74,5.44-.55,3.19.85,6.47,4.19,7.38,2.89.8,6.83-1,7.38-4.19Z"/><path class="cls-4" d="M530.3,287.83c1-.88-.18-.12-.45,0a11.17,11.17,0,0,0-2.05,1.51,10.6,10.6,0,0,0-2.27,3.28,19.81,19.81,0,0,0-1.55,8.61h12c0-.58-.06-1.16-.08-1.73q0-.6,0-1.2c0-.67,0-.78,0-.34-.44,1.22.37-.48.49-.74s.28-.67.41-1a3.67,3.67,0,0,1-1.8,2.16,6,6,0,0,0,2.15-8.21,6.15,6.15,0,0,0-8.21-2.15,7.28,7.28,0,0,0-2.82,2.87c-.37.67-.56,1.45-.89,2.14.59-1.24-.21.32-.37.7-1.05,2.48-.94,4.88-.88,7.51.06,3.13,2.71,6.14,6,6a6.12,6.12,0,0,0,6-6c0-.81,0-1.63,0-2.44,0-.47,0-.76,0-.12l.15-.56c-.2.36-.21.37,0,0s.67-.85.27-.51c-.24.21-.7.52-.28.46,1-.14,2-1.24,2.65-1.8,2.41-2,2.26-6.41,0-8.48a6.15,6.15,0,0,0-8.48,0Z"/><path class="cls-4" d="M524.55,320.89c-.06.95.1.73.49-.65q1.19-2.4-.45,0a7.42,7.42,0,0,0-.72,1.21c-.33.79.66-.77-.21.26a10.73,10.73,0,0,0-1.45,2.05l11.18,3c0-.36,0-.73.05-1.1-.09.68-.05.66.13,0s.4-1.44.67-2.13c-.28.65-.27.69,0,.11-.49.57-.51.61-.07.1s.94-1,1.43-1.46a6,6,0,1,0-8.49-8.48,17.17,17.17,0,0,0-4.3,6.06,22.71,22.71,0,0,0-1.47,6.95c-.32,5.87,8.5,8.28,11.18,3,.33-.59.29-.58-.11,0a13.94,13.94,0,0,0,1.27-1.58,5.77,5.77,0,0,0,.64-1c.36-.58.4-.69.13-.35-.48.58-.22.24.79-1a6.61,6.61,0,0,0,.88-1.88,10.06,10.06,0,0,0,.38-3.14c0-3.13-2.74-6.14-6-6a6.1,6.1,0,0,0-6,6Z"/><path class="cls-4" d="M546.64,252.75a12.22,12.22,0,0,1-1.36-3.4c-.48-1.31-.23-1.85-1.12.32-1,2.47-.7,1.44.49,1.06,2.61-.83,4.47-3.85,4.73-6.43a8.16,8.16,0,0,0-5.35-8.43c-3.23-1.21-6.75.3-9.32,2.38s-3.25,4.65-3.38,7.74c-.12,2.86-.46,6.62.38,9.39a13.78,13.78,0,0,0,5.68,7.11c3.45,2.19,6.67,1.63,10.2,0,2.95-1.34,3.67-5.61,2.15-8.21-1.77-3-5.25-3.5-8.21-2.15a1,1,0,0,1-.8.16h3.19c-.45-.09-1.06-1.46-.64-.12a15.17,15.17,0,0,1,.05-2.84c0-.4.14-3.29-.09-3.33q-2.52,2.58-.68,1.37l1.6-.79-3,.82.59-.06-3-.82-1-1.45V241.9c.47-2.22,2.35-2,.33-1.29a7.34,7.34,0,0,0-2.29,1.48,8.51,8.51,0,0,0-2.76,5.14c-.57,3.39,1.29,8.89,3.3,11.58s5.19,3.92,8.21,2.15c2.56-1.49,4.1-5.59,2.15-8.21Z"/><path class="cls-4" d="M534.73,235.7c.43-.64-2.34,2.18-2.62,2.57a33.54,33.54,0,0,0-2,3.35,15.7,15.7,0,0,0-1.91,7.87c0,2.33,1.12,3.42,1.9,5.37-.74-1.85.38,1.62.47,1.77,1.61,2.84,4.31,5,6.86,6.92s6.68.39,8.21-2.16c1.83-3.05.41-6.26-2.16-8.2s-2.77-4.37-4.89-6.81l1.76,4.24c-.59-4.4,2.62-5.66,4.77-8.86,4.32-6.43-6.07-12.44-10.36-6.06Z"/><path class="cls-4" d="M529.58,234.92c7.72,0,7.73-12,0-12s-7.74,12,0,12Z"/><path class="cls-4" d="M522.81,234.7c1.94.28,3.87.64,5.83.73.59,0,1.19.08,1.78,0a10,10,0,0,0,2-.31,5.83,5.83,0,0,0,.95-.37c1.25-.49.94-.45-.95.1,3.11-.38,6.16-2.48,6-6a6.09,6.09,0,0,0-6-6c-1.12,0-2.25,0-3.38,0a6,6,0,0,0,0,12c1.13,0,2.26,0,3.38,0v-12c-.61.08-3.56.24-4,1,1.91-.32,2.34-.47,1.3-.46l-.64,0c-.65,0-1.29-.05-1.93-.12,1.38.14-1-.16-1.21-.19-3.09-.44-6.59.76-7.38,4.19-.64,2.84.87,6.91,4.19,7.38Z"/><path class="cls-4" d="M531.5,270c0,.7,0,1.4,0,2.09,0,.2,0,2,.18,1l8.81-3.58-.42-.24,2.15,2.15c.74.95-.69,5.14.55,1.77.26-.72.4-1.45.64-2.18a4,4,0,0,1,.53-1.21c.34-.65,1.55-1.81-.18-.51l-8.21-2.15.23.4-.82-3a43.28,43.28,0,0,0,.65,7.46,10.17,10.17,0,0,0,2.54,5.41,2.83,2.83,0,0,0,.43.48q1,1-.66-1.43c-.13,7.72,11.87,7.72,12,0a9,9,0,0,0-1.26-5.13,7.07,7.07,0,0,0-1.6-1.92q-.49-.54.06.15.57.93.12-.36c.1-2.29-.11-6-1.33-8.09-1.5-2.57-5.61-4.1-8.21-2.15-3.39,2.53-5.06,6.13-6.18,10.12-.15.53-.14.54,0,0a11.39,11.39,0,0,0-.79,2,8.69,8.69,0,0,0-.18,2.54,7.56,7.56,0,0,0,3.84,6.25c3,1.72,8.22.37,8.82-3.59a41.14,41.14,0,0,0,.25-6.28c0-7.72-12-7.73-12,0Z"/><path class="cls-4" d="M523.12,235.38c2.09,0,4.19-.06,6.27.09s4.71.12,6.56-1.18c2-1.44,3.71-4.17,2.76-6.78a29.65,29.65,0,0,0-7.53-10.87,6,6,0,1,0-8.49,8.49,35.14,35.14,0,0,1,3.07,3.27c-.43-.54.61.91.6.88.15.25,1,2.11.78,1.42l2.75-6.77a15.17,15.17,0,0,1,1.77-.42,5.83,5.83,0,0,1-1.12,0c-.65,0-1.3-.09-1.95-.12-1.82-.11-3.65,0-5.47,0a6,6,0,0,0,0,12Z"/><path class="cls-4" d="M523.54,215c7.72,0,7.73-12,0-12s-7.73,12,0,12Z"/><path class="cls-7" d="M357.74,161a55.31,55.31,0,0,1-2.45-6.77c-.48-1.82-.49-3.59-1.24-5.32a4.59,4.59,0,0,1,0-1.44c-.32,1.28-1-.19.65.35,1.16.37,2.44.56,3.62.84l1.17.25c1.19.35,1.18.26,0-.28l-.82-3c.31,2.86-3.29,5.68-5.42,7.13-3,2.08-6.4,4.57-7.17,8.37-.62,3,.84,6.68,4.19,7.38,6.81,1.44,8.54-4.09,12.21-8.18,4.52-5.06-1.13-12.7-7.27-9.43-2.85,1.52-5.79,4.66-6.42,7.91-.82,4.14,1.73,7.14,5.78,7.59s6.9-2.87,9.38-5.55c2.7-2.92,5.82-6.69,6.53-10.7,2-11.22-12.08-13.37-19.26-8-2.61,2-3.88,5.17-2.15,8.21,1.46,2.58,5.62,4.09,8.21,2.15.85-.63,3.55-.84,3.91-1.26-1.44-3.71-2.26-4.75-2.48-3.13a10.42,10.42,0,0,1-1.44,1.73,45.92,45.92,0,0,1-3,3.64,8.06,8.06,0,0,0-1.29,1.32q-1.66,1.71,1.58-.4l5.79,7.6a9,9,0,0,1,.9-.74L354,151.82a35,35,0,0,0-3,4c-.88,1.31-2.19,2.07-.13,1.22H354l-.61-.13,4.19,7.38c-.15.74,0-.06.55-.38s1-.75,1.56-1.11a25.3,25.3,0,0,0,3.82-2.93,27.11,27.11,0,0,0,5.92-8.07c1.53-3.53,1.83-7.49-.52-10.74-2.19-3-5.82-3.62-9.22-4.41-7.22-1.67-15.58-.21-17.32,8.13a17.72,17.72,0,0,0,.72,9.08c1,3.48,1.61,6.92,3,10.33,1.26,3,4,5.09,7.38,4.19,2.82-.75,5.44-4.4,4.19-7.38Z"/><path class="cls-7" d="M357.47,161.65c-2.44-5-3.21-9.72-4.79-14.92-.72-2.37-2.22-3.18.56-1.93a22.15,22.15,0,0,0,6.95,1.82,15.82,15.82,0,0,1,3,.39c-2.15-.62.48-1.06-.52.34-1.41,2-2.59,4.14-4.1,6.1-1.29,1.68-2.6,3.39-4,5-1.09,1.23-3.88,4.73-5.46,5.09l4.62.6c1.51,1,.35.16-.06-.92-.49-1.28-1.23-2.47-1.74-3.74-1.06-2.68-1.55-5.47-2.67-8.13-.85-2-2.34-4.52-2.46-6.74-.34-1-.27-.89.22.36l1.34-.79a24.7,24.7,0,0,1,4,1.15c7.22,2.77,10.34-8.83,3.19-11.57-7.34-2.81-17.69-1-20.49,7.62-1,3.22.19,6.71,1.2,9.77,1.41,4.26,2.86,8.76,4.63,12.89,2.67,6.23,6.81,14.95,14.86,9.57,5.77-3.86,10.63-10.12,14.54-15.77,4.26-6.17,6.84-13.57.73-19.73-2.41-2.44-5.63-2.94-8.86-3.36-3.54-.46-6.43-2-10.15-2-7.65,0-14.12,5.82-12.37,13.93.69,3.2,2.31,5.93,2.82,9.23.67,4.26,2.77,8,4.64,11.81,3.39,6.93,13.74.86,10.36-6.06Z"/><path class="cls-7" d="M355.72,159.91c1.73-.82,3.21-2,4.91-2.84,2.83-1.39,3.82-5.62,2.15-8.21a6.16,6.16,0,0,0-8.21-2.15c-1.7.84-3.18,2-4.91,2.83a6.07,6.07,0,0,0-2.76,3.59,6,6,0,0,0,8.82,6.78Z"/><ellipse class="cls-8" cx="349.86" cy="128.04" rx="4.33" ry="9.77" transform="translate(-19.65 175.58) rotate(-27.43)"/><ellipse class="cls-8" cx="365" cy="130.76" rx="10.41" ry="4.88" transform="translate(0.88 263.95) rotate(-39.8)"/><ellipse class="cls-8" cx="356.85" cy="128.69" rx="9.67" ry="4.37" transform="translate(148.91 445.97) rotate(-76.59)"/><path class="cls-7" d="M395.52,182c-.25-4.29.47-8.43.7-12.6a3.71,3.71,0,0,1,.42-1.18c-.73.94-.54.4.82,1,1.06.5,4,2,4.44,3l-.82-3c0-.3.69-.47-.65.74a10.35,10.35,0,0,1-1.61,1.09,18.87,18.87,0,0,1-5.29,2.17c-3.62.94-7.41,2.38-9.35,5.79a6.15,6.15,0,0,0,2.16,8.21c5.43,3.73,10-1.79,14.28-4.13,4.9-2.67,3.05-12-3-11.18-3.87.52-8.06,2.21-10.07,5.81s0,7.34,3.58,8.82c3.81,1.57,8.53-1,11.71-3.11,3.65-2.43,7.66-4.42,9.17-8.87,3.37-9.88-9.16-14.4-16.81-12-7.35,2.28-4.21,13.87,3.19,11.57,1-.31,2.5.38,3.27.1.29-1.64-.07-2.8-1.08-3.49-.54.32-1.1.63-1.66.93-2.15,1.29-4.33,3.2-6.85,3.72h3.19l-.94-.39,3.59,8.81c-1.21,2.17.21.06-.29.13l-3-11.19a29.44,29.44,0,0,0-4.08,2.89c.33-.26-.83.73-.59.49-.76.78-1.74.17-.09.24l3,.82-.45-.31,2.16,8.21c-.48.83-.68.38.23.32a8.89,8.89,0,0,0,1.6-.49,29.23,29.23,0,0,0,4.91-1.57,27.29,27.29,0,0,0,8.37-5.61c2.48-2.66,4.22-6.39,3.21-10.08s-4.28-5.52-7.25-7.42c-6.2-4-14.72-5.62-19.16,1.76-1.71,2.84-2.09,5.6-2.38,8.79a76.07,76.07,0,0,0-.56,11.21c.43,7.68,12.43,7.73,12,0Z"/><path class="cls-7" d="M395.14,184.1c-.34-2.93-1-5.95-.64-8.9.28-2.4.78-4.69.88-7.12a21.3,21.3,0,0,0-.22-4l.47-.27c-1.36.63-1.48,1-.37,1.23.35.51,1.81.8,2.43,1.26,1.24.95,1.86,1.93,3.31,2.7,1.2.64,3.83,1,3.84,2.11,0,.82-4.19,3.26-5.15,3.9-2.18,1.47-4.43,2.91-6.74,4.18-1.65.91-4.95,2.95-6.83,2.72l4.24,1.76c1.73,2.22.7.61.54-1-.13-1.36-.35-2.75-.38-4.11-.08-3,.35-5.82.16-8.82-.08-1.15.66-5.78,0-6.48.12-1.11-.18-.83-.89.85l1.45-.45,1.29-.21a12.56,12.56,0,0,1,2.33,1.77c5.84,5,14.36-3.46,8.48-8.49-6-5.16-15.33-7.9-21.83-1.32-2.64,2.67-2.71,6.09-2.85,9.59-.16,3.94-.09,7.85-.2,11.8-.18,6.77.47,18.89,10.22,17.06,6.8-1.28,13.94-6,19.43-10,5.84-4.21,10.19-8.9,8.23-16.59-.94-3.67-3.63-6-6.89-7.61s-5.71-4-9.2-5.42c-7-2.79-14.86-.58-16.83,7.5-.73,3-.09,6.58-.43,9.63a54.22,54.22,0,0,0,.12,12.73c.86,7.58,12.87,7.67,12,0Z"/><path class="cls-7" d="M392.84,180.85a36,36,0,0,0,4.15-.58c.43-.1.86-.22,1.28-.33s2.08-.35.15-.12a6.53,6.53,0,0,0,4.25-1.76,6,6,0,0,0,0-8.48,5.82,5.82,0,0,0-4.25-1.76,28.12,28.12,0,0,0-3.86.69c-.44.12-.89.2-1.34.3-.66.11-.52.09.42,0l-.8.08a6.45,6.45,0,0,0-4.24,1.76,6.12,6.12,0,0,0-1.76,4.24c.14,3,2.66,6.33,6,6Z"/><ellipse class="cls-8" cx="399.1" cy="148.76" rx="4.33" ry="9.77" transform="translate(-16.64 56.16) rotate(-7.89)"/><ellipse class="cls-8" cx="412.46" cy="156.38" rx="10.41" ry="4.88" transform="translate(-28.63 152.47) rotate(-20.26)"/><ellipse class="cls-8" cx="405.48" cy="151.71" rx="9.67" ry="4.37" transform="translate(57.6 409.41) rotate(-57.04)"/><path class="cls-7" d="M433,207.34a34.66,34.66,0,0,1,1.35-6.63,30.82,30.82,0,0,0,1-3.86c.13-.63.46-1.1.13-.41a12,12,0,0,1,.73-1.25c.57-.72.23-.71-1,0,.2.21.76.1,1,.35.6.62,1.56,1.24,2.2,1.82,1.06,1,1.47,2.44,2,.45.6-2.15-1.68,0-3,.47a18.57,18.57,0,0,1-4.75,1.07c-3.5.35-7.7.82-10.08,3.75-2,2.48-2.52,6,0,8.48a8.15,8.15,0,0,0,8.35,1.79c2.46-.7,4.59-2.36,6.29-2.95,6.32-2.19,5.36-11.56-1.59-11.79-3.15-.1-7.51,1.21-9.55,3.75-2.44,3-2.33,7.21,1.22,9.43,3.73,2.34,8.36.93,12.17-.69,4.08-1.74,8.46-3.15,10.84-7.22,5.83-10-7.67-15.7-15.5-14.65-3.21.43-5,4.57-4.19,7.38,1,3.47,4.14,4.63,7.38,4.2.92-.13,2.46.91,3.07,1.64l-1.55-2.65c-.45-1.49,1.41-2.32-1.05-1.33-1.06.44-2.13.95-3.21,1.36a15.49,15.49,0,0,1-4.07,1.32l3,.82-.87-.54,1.22,9.42c-.34.41.42-.26,1.06-.24L434,198.89a21.17,21.17,0,0,0-4.85,2.25c-1,.62-1.75.53-.37.83l2.65,1.54-.39-.37v8.48c-.46.57-1.12.19.12,0,.5-.07,1-.18,1.47-.25a43.23,43.23,0,0,0,5.18-.59,29.12,29.12,0,0,0,8.84-3.73c3-2,5.65-5.09,5.71-8.95.07-4.31-3-7-6-9.62-5.25-4.76-13.15-7.88-18.78-1.79-2.42,2.6-3.3,5.48-4.14,8.78A86.62,86.62,0,0,0,421,207.34c-.35,3.23,3,6,6,6,3.55,0,5.65-2.76,6-6Z"/><path class="cls-7" d="M432.26,209.32c.14-2.74,0-5.57.86-8.21.69-2.2,1.5-4.26,2-6.52.12-.55.05-3,.43-3.36s-.22.16.59.8c1.9,1.49,3.07,3.53,5.14,5,.88.62,1.83,1.07,2.67,1.77s.46-.49,0,.17a16.42,16.42,0,0,1-4,2.5c-2.55,1.25-5.21,2.21-7.85,3.23-1.73.68-6.23,2.61-7.8,2.15l3.59,2.76c.84,1.57.31.15.43-1.56.09-1.33.12-2.7.29-4,.35-2.6,1.27-5,1.58-7.68.14-1.22,0-6.4,1.11-7.27-.82.65,1.67.44,1.94.55.94.39,1.91,2.07,2.53,2.8,5,5.94,13.4-2.59,8.48-8.48s-13.16-9-20.21-4.46c-6,3.89-5.15,13.19-6.61,19.28-1.42,5.94-3.76,18.17,4.64,19.93,3.84.81,9-.88,12.54-2.13a99.61,99.61,0,0,0,10.75-4.44c6.55-3.21,11.95-7.7,10.42-15.84-.71-3.78-3.17-6-6.16-8.24-2.7-2-4.44-4.53-7.38-6.36-6.66-4.16-15.53-2.55-18.17,5.6-1,3.08-.89,6.32-2,9.43-1.47,4.09-1.5,8.33-1.73,12.62-.41,7.72,11.59,7.7,12,0Z"/><path class="cls-7" d="M431.45,206.82c1.9.13,3.77-.17,5.67-.09a6,6,0,0,0,6-6,6.14,6.14,0,0,0-6-6c-1.9-.08-3.76.22-5.67.09a6,6,0,0,0-6,6,6.14,6.14,0,0,0,6,6Z"/><ellipse class="cls-8" cx="441.95" cy="176.13" rx="9.77" ry="4.33" transform="translate(253.03 612.77) rotate(-88.33)"/><ellipse class="cls-8" cx="453.85" cy="185.87" rx="10.41" ry="4.88" transform="matrix(0.98, -0.19, 0.19, 0.98, -26.62, 87.51)"/><ellipse class="cls-8" cx="447.75" cy="180.1" rx="9.67" ry="4.37" transform="translate(12.43 388.46) rotate(-47.49)"/><path class="cls-7" d="M466.28,239.21c1.76-3.65,4.33-6.74,6.18-10.23a4.4,4.4,0,0,1,1.27-1.15c-.88.49-.44-.66.21.66.43.86,1,1.7,1.46,2.55.83,1.52.52,2.85,1.85.75,1.48-2.34-.5-.82-2-.67a18.45,18.45,0,0,1-6.21-.6c-3.76-.88-7.62-1.56-11.13.46a6.1,6.1,0,0,0-2.15,8.21c3.29,5.79,9.19,3.31,14.38,3.35,7.11,0,7.69-9.51,1.59-11.79a12.79,12.79,0,0,0-10.28.72c-2.63,1.54-4,5.54-2.16,8.21,2.64,3.76,6.07,4.06,10.35,4.24s9.6.05,13.32-2.3c9.76-6.15,1.19-17.89-7.3-19.66-7.54-1.57-10.76,10-3.19,11.57a2.26,2.26,0,0,1,1.53.52c1.45,1.64,2.28.8,2.49-2.5l-2.68.12c-1.45.07-2.72.29-4.17.25a9.6,9.6,0,0,0-2.39-.18c-2-.09-1.22.54,2.41,1.88l-2.16,8.21c-1.33.79.08.13,1,.49l1.6-11.78a23.29,23.29,0,0,0-4.41.35,6.4,6.4,0,0,0-1.05.33c-1.84-.14-1.36.49,1.44,1.91L464,241.34c-.91.52,1.25.59,1.88.75a28.5,28.5,0,0,0,4.76,1,26.19,26.19,0,0,0,10.6-1,10.73,10.73,0,0,0,6.92-6.19c1.46-4-.51-7.42-2.37-10.87-3.36-6.21-9.72-11.94-17.12-8.07-3,1.58-4.95,4-6.79,6.71a78.25,78.25,0,0,0-5.93,9.53c-3.34,6.93,7,13,10.36,6.06Z"/><path class="cls-7" d="M465.55,239.41c1.67-4,3.77-6.83,6.12-10.39a34.24,34.24,0,0,0,2.56-4.49c1.17-2.56.22-.15-.22-.81,1.87,2.84,3.18,5.76,5.05,8.66,1,1.53,1.05,1.26.1,2-1.13.82-5.11.68-6.43.78a64.91,64.91,0,0,1-12.31-.17,10.38,10.38,0,0,0-2.18-.22c.21-.23,2.08,4.87,3.15,4.07s1.81-4.35,2.52-5.67c1.89-3.51,3.91-7.19,6-10.56.24-.39,1.31-1.63,1.26-2.1.51-.66.35-.71-.49-.16-1,.28-1,.44-.05.48.52.48,1.71.33,2.29.91a7.76,7.76,0,0,1,1,2.32c2.67,7.17,14.27,4.07,11.57-3.19s-8.17-13.06-16.82-12c-7.91.94-10.36,10.81-14,16.49-3.32,5.12-9.21,15.76-1.86,20.08,2.76,1.63,6.71,1.58,9.81,1.86a63.83,63.83,0,0,0,12.36-.28c7.69-.78,14.85-2.32,16.86-11,1-4.22-1-7.34-3.18-10.72-1.95-3.07-2.85-6.21-5.38-9.07-5.06-5.73-13.86-6.22-18.53.48-1.84,2.64-2.85,5.46-4.93,8-2.79,3.42-4.16,7.53-5.82,11.55-3,7.13,8.66,10.23,11.57,3.19Z"/><path class="cls-7" d="M464.46,236.7a35.82,35.82,0,0,0,4,1.58,24,24,0,0,1,2.78.83,6,6,0,0,0,6.78-8.82,7.06,7.06,0,0,0-3.59-2.76,19.38,19.38,0,0,0-2.39-.72c-.38-.1-.77-.21-1.15-.34s-2-.84-.4-.13a6.54,6.54,0,0,0-4.63-.61,6,6,0,0,0-4.19,7.38,5.79,5.79,0,0,0,2.76,3.59Z"/><ellipse class="cls-8" cx="485.6" cy="211.72" rx="9.77" ry="4.33" transform="translate(113.34 588.62) rotate(-68.91)"/><ellipse class="cls-8" cx="493.59" cy="224.87" rx="4.88" ry="10.41" transform="translate(196.5 678.67) rotate(-81.28)"/><ellipse class="cls-8" cx="489.75" cy="217.39" rx="9.67" ry="4.37" transform="translate(-44.69 256.01) rotate(-28.07)"/></g></g></svg>